G04 #@! TF.GenerationSoftware,KiCad,Pcbnew,(5.0.1)-3*
G04 #@! TF.CreationDate,2018-12-07T17:12:27+00:00*
G04 #@! TF.ProjectId,daughterDisplay,6461756768746572446973706C61792E,rev?*
G04 #@! TF.SameCoordinates,Original*
G04 #@! TF.FileFunction,Legend,Bot*
G04 #@! TF.FilePolarity,Positive*
%FSLAX46Y46*%
G04 Gerber Fmt 4.6, Leading zero omitted, Abs format (unit mm)*
G04 Created by KiCad (PCBNEW (5.0.1)-3) date 07/12/2018 17:12:27*
%MOMM*%
%LPD*%
G01*
G04 APERTURE LIST*
%ADD10C,0.010000*%
%ADD11C,0.150000*%
G04 APERTURE END LIST*
D10*
G04 #@! TO.C,REF\002A\002A*
G36*
X184581543Y-99833071D02*
X184485268Y-99857309D01*
X184398684Y-99900141D01*
X184323873Y-99959919D01*
X184262918Y-100034994D01*
X184217899Y-100123720D01*
X184191636Y-100220030D01*
X184185786Y-100317295D01*
X184200640Y-100411154D01*
X184234340Y-100499011D01*
X184285028Y-100578270D01*
X184350845Y-100646336D01*
X184429934Y-100700612D01*
X184520434Y-100738502D01*
X184571700Y-100750926D01*
X184616198Y-100758447D01*
X184650499Y-100761419D01*
X184683460Y-100759594D01*
X184723934Y-100752725D01*
X184757031Y-100745750D01*
X184850447Y-100714241D01*
X184934119Y-100663117D01*
X185006165Y-100593929D01*
X185064700Y-100508228D01*
X185078648Y-100480989D01*
X185095086Y-100444622D01*
X185105394Y-100414082D01*
X185110960Y-100381950D01*
X185113169Y-100340807D01*
X185113448Y-100294722D01*
X185109361Y-100210365D01*
X185095946Y-100141086D01*
X185070756Y-100080461D01*
X185031346Y-100022067D01*
X184992798Y-99977802D01*
X184920906Y-99911984D01*
X184845813Y-99866553D01*
X184763062Y-99839350D01*
X184685428Y-99829076D01*
X184581543Y-99833071D01*
X184581543Y-99833071D01*
G37*
X184581543Y-99833071D02*
X184485268Y-99857309D01*
X184398684Y-99900141D01*
X184323873Y-99959919D01*
X184262918Y-100034994D01*
X184217899Y-100123720D01*
X184191636Y-100220030D01*
X184185786Y-100317295D01*
X184200640Y-100411154D01*
X184234340Y-100499011D01*
X184285028Y-100578270D01*
X184350845Y-100646336D01*
X184429934Y-100700612D01*
X184520434Y-100738502D01*
X184571700Y-100750926D01*
X184616198Y-100758447D01*
X184650499Y-100761419D01*
X184683460Y-100759594D01*
X184723934Y-100752725D01*
X184757031Y-100745750D01*
X184850447Y-100714241D01*
X184934119Y-100663117D01*
X185006165Y-100593929D01*
X185064700Y-100508228D01*
X185078648Y-100480989D01*
X185095086Y-100444622D01*
X185105394Y-100414082D01*
X185110960Y-100381950D01*
X185113169Y-100340807D01*
X185113448Y-100294722D01*
X185109361Y-100210365D01*
X185095946Y-100141086D01*
X185070756Y-100080461D01*
X185031346Y-100022067D01*
X184992798Y-99977802D01*
X184920906Y-99911984D01*
X184845813Y-99866553D01*
X184763062Y-99839350D01*
X184685428Y-99829076D01*
X184581543Y-99833071D01*
G36*
X176121993Y-102278745D02*
X176121974Y-102513162D01*
X176121948Y-102726103D01*
X176121875Y-102918668D01*
X176121718Y-103091959D01*
X176121436Y-103247076D01*
X176120991Y-103385120D01*
X176120344Y-103507192D01*
X176119455Y-103614394D01*
X176118287Y-103707826D01*
X176116799Y-103788590D01*
X176114954Y-103857786D01*
X176112711Y-103916515D01*
X176110031Y-103965879D01*
X176106877Y-104006978D01*
X176103208Y-104040913D01*
X176098987Y-104068786D01*
X176094173Y-104091698D01*
X176088727Y-104110749D01*
X176082612Y-104127040D01*
X176075788Y-104141673D01*
X176068215Y-104155749D01*
X176059855Y-104170368D01*
X176054661Y-104179474D01*
X176020396Y-104240189D01*
X176878545Y-104240189D01*
X176878545Y-104144233D01*
X176879276Y-104100870D01*
X176881228Y-104067705D01*
X176884037Y-104049924D01*
X176885279Y-104048278D01*
X176896701Y-104055162D01*
X176919416Y-104073005D01*
X176942115Y-104092379D01*
X176996700Y-104133114D01*
X177066179Y-104174117D01*
X177143230Y-104211623D01*
X177220535Y-104241864D01*
X177251387Y-104251512D01*
X177319884Y-104266078D01*
X177402736Y-104276039D01*
X177492129Y-104281083D01*
X177580252Y-104280896D01*
X177659293Y-104275166D01*
X177696989Y-104269358D01*
X177835086Y-104231297D01*
X177962387Y-104173573D01*
X178078208Y-104096711D01*
X178181863Y-104001239D01*
X178272667Y-103887679D01*
X178339469Y-103776881D01*
X178394336Y-103660125D01*
X178436337Y-103540776D01*
X178466333Y-103414783D01*
X178485189Y-103278094D01*
X178493768Y-103126658D01*
X178494494Y-103049211D01*
X178492400Y-102992434D01*
X177663283Y-102992434D01*
X177663076Y-103085502D01*
X177660163Y-103173192D01*
X177654500Y-103250272D01*
X177646045Y-103311509D01*
X177643462Y-103323850D01*
X177611660Y-103431133D01*
X177570002Y-103518158D01*
X177518137Y-103585142D01*
X177455719Y-103632305D01*
X177382400Y-103659865D01*
X177297831Y-103668041D01*
X177201665Y-103657051D01*
X177138189Y-103641329D01*
X177089046Y-103623139D01*
X177034917Y-103597291D01*
X176994256Y-103573589D01*
X176923700Y-103527221D01*
X176923700Y-102377030D01*
X176991108Y-102333462D01*
X177069633Y-102292540D01*
X177153819Y-102265889D01*
X177238943Y-102253965D01*
X177320284Y-102257222D01*
X177393120Y-102276115D01*
X177425074Y-102291684D01*
X177482999Y-102334681D01*
X177531956Y-102391453D01*
X177573110Y-102464075D01*
X177607626Y-102554621D01*
X177636667Y-102665166D01*
X177637948Y-102671033D01*
X177648119Y-102733288D01*
X177655761Y-102811094D01*
X177660830Y-102899220D01*
X177663283Y-102992434D01*
X178492400Y-102992434D01*
X178486643Y-102836395D01*
X178464698Y-102640559D01*
X178428714Y-102461832D01*
X178378741Y-102300345D01*
X178314832Y-102156226D01*
X178237038Y-102029606D01*
X178145411Y-101920615D01*
X178040003Y-101829383D01*
X177994838Y-101798432D01*
X177893889Y-101742285D01*
X177790599Y-101702674D01*
X177680511Y-101678514D01*
X177559170Y-101668719D01*
X177466664Y-101669765D01*
X177337010Y-101680731D01*
X177224416Y-101702546D01*
X177125625Y-101736214D01*
X177037379Y-101782736D01*
X176988514Y-101816948D01*
X176959147Y-101838862D01*
X176937457Y-101853833D01*
X176929247Y-101858233D01*
X176927632Y-101847404D01*
X176926341Y-101816751D01*
X176925362Y-101769026D01*
X176924683Y-101706979D01*
X176924290Y-101633362D01*
X176924170Y-101550927D01*
X176924312Y-101462425D01*
X176924703Y-101370607D01*
X176925329Y-101278224D01*
X176926180Y-101188028D01*
X176927240Y-101102771D01*
X176928499Y-101025203D01*
X176929944Y-100958076D01*
X176931562Y-100904141D01*
X176933339Y-100866150D01*
X176933831Y-100859167D01*
X176941408Y-100788751D01*
X176952969Y-100733602D01*
X176970708Y-100686481D01*
X176996818Y-100640147D01*
X177003085Y-100630567D01*
X177027517Y-100593878D01*
X176122189Y-100593878D01*
X176121993Y-102278745D01*
X176121993Y-102278745D01*
G37*
X176121993Y-102278745D02*
X176121974Y-102513162D01*
X176121948Y-102726103D01*
X176121875Y-102918668D01*
X176121718Y-103091959D01*
X176121436Y-103247076D01*
X176120991Y-103385120D01*
X176120344Y-103507192D01*
X176119455Y-103614394D01*
X176118287Y-103707826D01*
X176116799Y-103788590D01*
X176114954Y-103857786D01*
X176112711Y-103916515D01*
X176110031Y-103965879D01*
X176106877Y-104006978D01*
X176103208Y-104040913D01*
X176098987Y-104068786D01*
X176094173Y-104091698D01*
X176088727Y-104110749D01*
X176082612Y-104127040D01*
X176075788Y-104141673D01*
X176068215Y-104155749D01*
X176059855Y-104170368D01*
X176054661Y-104179474D01*
X176020396Y-104240189D01*
X176878545Y-104240189D01*
X176878545Y-104144233D01*
X176879276Y-104100870D01*
X176881228Y-104067705D01*
X176884037Y-104049924D01*
X176885279Y-104048278D01*
X176896701Y-104055162D01*
X176919416Y-104073005D01*
X176942115Y-104092379D01*
X176996700Y-104133114D01*
X177066179Y-104174117D01*
X177143230Y-104211623D01*
X177220535Y-104241864D01*
X177251387Y-104251512D01*
X177319884Y-104266078D01*
X177402736Y-104276039D01*
X177492129Y-104281083D01*
X177580252Y-104280896D01*
X177659293Y-104275166D01*
X177696989Y-104269358D01*
X177835086Y-104231297D01*
X177962387Y-104173573D01*
X178078208Y-104096711D01*
X178181863Y-104001239D01*
X178272667Y-103887679D01*
X178339469Y-103776881D01*
X178394336Y-103660125D01*
X178436337Y-103540776D01*
X178466333Y-103414783D01*
X178485189Y-103278094D01*
X178493768Y-103126658D01*
X178494494Y-103049211D01*
X178492400Y-102992434D01*
X177663283Y-102992434D01*
X177663076Y-103085502D01*
X177660163Y-103173192D01*
X177654500Y-103250272D01*
X177646045Y-103311509D01*
X177643462Y-103323850D01*
X177611660Y-103431133D01*
X177570002Y-103518158D01*
X177518137Y-103585142D01*
X177455719Y-103632305D01*
X177382400Y-103659865D01*
X177297831Y-103668041D01*
X177201665Y-103657051D01*
X177138189Y-103641329D01*
X177089046Y-103623139D01*
X177034917Y-103597291D01*
X176994256Y-103573589D01*
X176923700Y-103527221D01*
X176923700Y-102377030D01*
X176991108Y-102333462D01*
X177069633Y-102292540D01*
X177153819Y-102265889D01*
X177238943Y-102253965D01*
X177320284Y-102257222D01*
X177393120Y-102276115D01*
X177425074Y-102291684D01*
X177482999Y-102334681D01*
X177531956Y-102391453D01*
X177573110Y-102464075D01*
X177607626Y-102554621D01*
X177636667Y-102665166D01*
X177637948Y-102671033D01*
X177648119Y-102733288D01*
X177655761Y-102811094D01*
X177660830Y-102899220D01*
X177663283Y-102992434D01*
X178492400Y-102992434D01*
X178486643Y-102836395D01*
X178464698Y-102640559D01*
X178428714Y-102461832D01*
X178378741Y-102300345D01*
X178314832Y-102156226D01*
X178237038Y-102029606D01*
X178145411Y-101920615D01*
X178040003Y-101829383D01*
X177994838Y-101798432D01*
X177893889Y-101742285D01*
X177790599Y-101702674D01*
X177680511Y-101678514D01*
X177559170Y-101668719D01*
X177466664Y-101669765D01*
X177337010Y-101680731D01*
X177224416Y-101702546D01*
X177125625Y-101736214D01*
X177037379Y-101782736D01*
X176988514Y-101816948D01*
X176959147Y-101838862D01*
X176937457Y-101853833D01*
X176929247Y-101858233D01*
X176927632Y-101847404D01*
X176926341Y-101816751D01*
X176925362Y-101769026D01*
X176924683Y-101706979D01*
X176924290Y-101633362D01*
X176924170Y-101550927D01*
X176924312Y-101462425D01*
X176924703Y-101370607D01*
X176925329Y-101278224D01*
X176926180Y-101188028D01*
X176927240Y-101102771D01*
X176928499Y-101025203D01*
X176929944Y-100958076D01*
X176931562Y-100904141D01*
X176933339Y-100866150D01*
X176933831Y-100859167D01*
X176941408Y-100788751D01*
X176952969Y-100733602D01*
X176970708Y-100686481D01*
X176996818Y-100640147D01*
X177003085Y-100630567D01*
X177027517Y-100593878D01*
X176122189Y-100593878D01*
X176121993Y-102278745D01*
G36*
X179634926Y-101673052D02*
X179483008Y-101693067D01*
X179347744Y-101726702D01*
X179228261Y-101774225D01*
X179123685Y-101835905D01*
X179046076Y-101899465D01*
X178977235Y-101973599D01*
X178923494Y-102053371D01*
X178880590Y-102145591D01*
X178865116Y-102188661D01*
X178852256Y-102227642D01*
X178841054Y-102263789D01*
X178831380Y-102298934D01*
X178823104Y-102334910D01*
X178816097Y-102373550D01*
X178810228Y-102416685D01*
X178805369Y-102466149D01*
X178801390Y-102523773D01*
X178798160Y-102591391D01*
X178795551Y-102670834D01*
X178793433Y-102763936D01*
X178791676Y-102872527D01*
X178790151Y-102998442D01*
X178788728Y-103143512D01*
X178787475Y-103286278D01*
X178786149Y-103442468D01*
X178784944Y-103577739D01*
X178783734Y-103693746D01*
X178782394Y-103792145D01*
X178780800Y-103874593D01*
X178778825Y-103942746D01*
X178776344Y-103998260D01*
X178773231Y-104042792D01*
X178769362Y-104077998D01*
X178764611Y-104105534D01*
X178758852Y-104127056D01*
X178751961Y-104144222D01*
X178743811Y-104158686D01*
X178734277Y-104172106D01*
X178723234Y-104186138D01*
X178718934Y-104191571D01*
X178703114Y-104214410D01*
X178696078Y-104229963D01*
X178696056Y-104230422D01*
X178706933Y-104232621D01*
X178737918Y-104234647D01*
X178786543Y-104236442D01*
X178850337Y-104237951D01*
X178926831Y-104239116D01*
X179013556Y-104239880D01*
X179108043Y-104240186D01*
X179118950Y-104240189D01*
X179541843Y-104240189D01*
X179545105Y-104144122D01*
X179548367Y-104048056D01*
X179610456Y-104099043D01*
X179707786Y-104166557D01*
X179817687Y-104221249D01*
X179904151Y-104251478D01*
X179973222Y-104266166D01*
X180056575Y-104276159D01*
X180146341Y-104281146D01*
X180234655Y-104280813D01*
X180313649Y-104274851D01*
X180349878Y-104269138D01*
X180489897Y-104231276D01*
X180616322Y-104176432D01*
X180728240Y-104105424D01*
X180824738Y-104019068D01*
X180904900Y-103918179D01*
X180967813Y-103803576D01*
X181012188Y-103677484D01*
X181024522Y-103620901D01*
X181032132Y-103558702D01*
X181035761Y-103483863D01*
X181036255Y-103449967D01*
X181036190Y-103446782D01*
X180276252Y-103446782D01*
X180266959Y-103521833D01*
X180238772Y-103585660D01*
X180190303Y-103641298D01*
X180185246Y-103645711D01*
X180136952Y-103680537D01*
X180085243Y-103703120D01*
X180024511Y-103715040D01*
X179949148Y-103717883D01*
X179931041Y-103717478D01*
X179877222Y-103714825D01*
X179837192Y-103709409D01*
X179802176Y-103699245D01*
X179763397Y-103682350D01*
X179752755Y-103677172D01*
X179692104Y-103641344D01*
X179645285Y-103598712D01*
X179632548Y-103583473D01*
X179587878Y-103526962D01*
X179587878Y-103331086D01*
X179588414Y-103252439D01*
X179590104Y-103194488D01*
X179593072Y-103155375D01*
X179597443Y-103133241D01*
X179601528Y-103126774D01*
X179617453Y-103123611D01*
X179651236Y-103120988D01*
X179698160Y-103119155D01*
X179753507Y-103118357D01*
X179762394Y-103118342D01*
X179883170Y-103123596D01*
X179985840Y-103139763D01*
X180072394Y-103167461D01*
X180144819Y-103207308D01*
X180199749Y-103254258D01*
X180244296Y-103312145D01*
X180269020Y-103375193D01*
X180276252Y-103446782D01*
X181036190Y-103446782D01*
X181034322Y-103356212D01*
X181025978Y-103277312D01*
X181009732Y-103206090D01*
X180984095Y-103135364D01*
X180960099Y-103082993D01*
X180901480Y-102987696D01*
X180823383Y-102899670D01*
X180728185Y-102820517D01*
X180618262Y-102751840D01*
X180495990Y-102695241D01*
X180363745Y-102652321D01*
X180299078Y-102637382D01*
X180162896Y-102615277D01*
X180014451Y-102600694D01*
X179862995Y-102594313D01*
X179736436Y-102595945D01*
X179574550Y-102602724D01*
X179581970Y-102543745D01*
X179601262Y-102444592D01*
X179632396Y-102363872D01*
X179676231Y-102300966D01*
X179733629Y-102255256D01*
X179805452Y-102226122D01*
X179892559Y-102212947D01*
X179995814Y-102215111D01*
X180033789Y-102219112D01*
X180174980Y-102244280D01*
X180311793Y-102285314D01*
X180406322Y-102323315D01*
X180451482Y-102342690D01*
X180489915Y-102358260D01*
X180516266Y-102367905D01*
X180523954Y-102369952D01*
X180533698Y-102360874D01*
X180550417Y-102331905D01*
X180574268Y-102282717D01*
X180605407Y-102212984D01*
X180643993Y-102122379D01*
X180650590Y-102106589D01*
X180680647Y-102034272D01*
X180707626Y-101968925D01*
X180730364Y-101913406D01*
X180747694Y-101870572D01*
X180758452Y-101843281D01*
X180761559Y-101834442D01*
X180751560Y-101829687D01*
X180725283Y-101824410D01*
X180697011Y-101820731D01*
X180666854Y-101815974D01*
X180619067Y-101806528D01*
X180557888Y-101793320D01*
X180487554Y-101777276D01*
X180412306Y-101759320D01*
X180383745Y-101752297D01*
X180278684Y-101726709D01*
X180191020Y-101706647D01*
X180116432Y-101691469D01*
X180050597Y-101680535D01*
X179989193Y-101673204D01*
X179927898Y-101668835D01*
X179862390Y-101666787D01*
X179804372Y-101666389D01*
X179634926Y-101673052D01*
X179634926Y-101673052D01*
G37*
X179634926Y-101673052D02*
X179483008Y-101693067D01*
X179347744Y-101726702D01*
X179228261Y-101774225D01*
X179123685Y-101835905D01*
X179046076Y-101899465D01*
X178977235Y-101973599D01*
X178923494Y-102053371D01*
X178880590Y-102145591D01*
X178865116Y-102188661D01*
X178852256Y-102227642D01*
X178841054Y-102263789D01*
X178831380Y-102298934D01*
X178823104Y-102334910D01*
X178816097Y-102373550D01*
X178810228Y-102416685D01*
X178805369Y-102466149D01*
X178801390Y-102523773D01*
X178798160Y-102591391D01*
X178795551Y-102670834D01*
X178793433Y-102763936D01*
X178791676Y-102872527D01*
X178790151Y-102998442D01*
X178788728Y-103143512D01*
X178787475Y-103286278D01*
X178786149Y-103442468D01*
X178784944Y-103577739D01*
X178783734Y-103693746D01*
X178782394Y-103792145D01*
X178780800Y-103874593D01*
X178778825Y-103942746D01*
X178776344Y-103998260D01*
X178773231Y-104042792D01*
X178769362Y-104077998D01*
X178764611Y-104105534D01*
X178758852Y-104127056D01*
X178751961Y-104144222D01*
X178743811Y-104158686D01*
X178734277Y-104172106D01*
X178723234Y-104186138D01*
X178718934Y-104191571D01*
X178703114Y-104214410D01*
X178696078Y-104229963D01*
X178696056Y-104230422D01*
X178706933Y-104232621D01*
X178737918Y-104234647D01*
X178786543Y-104236442D01*
X178850337Y-104237951D01*
X178926831Y-104239116D01*
X179013556Y-104239880D01*
X179108043Y-104240186D01*
X179118950Y-104240189D01*
X179541843Y-104240189D01*
X179545105Y-104144122D01*
X179548367Y-104048056D01*
X179610456Y-104099043D01*
X179707786Y-104166557D01*
X179817687Y-104221249D01*
X179904151Y-104251478D01*
X179973222Y-104266166D01*
X180056575Y-104276159D01*
X180146341Y-104281146D01*
X180234655Y-104280813D01*
X180313649Y-104274851D01*
X180349878Y-104269138D01*
X180489897Y-104231276D01*
X180616322Y-104176432D01*
X180728240Y-104105424D01*
X180824738Y-104019068D01*
X180904900Y-103918179D01*
X180967813Y-103803576D01*
X181012188Y-103677484D01*
X181024522Y-103620901D01*
X181032132Y-103558702D01*
X181035761Y-103483863D01*
X181036255Y-103449967D01*
X181036190Y-103446782D01*
X180276252Y-103446782D01*
X180266959Y-103521833D01*
X180238772Y-103585660D01*
X180190303Y-103641298D01*
X180185246Y-103645711D01*
X180136952Y-103680537D01*
X180085243Y-103703120D01*
X180024511Y-103715040D01*
X179949148Y-103717883D01*
X179931041Y-103717478D01*
X179877222Y-103714825D01*
X179837192Y-103709409D01*
X179802176Y-103699245D01*
X179763397Y-103682350D01*
X179752755Y-103677172D01*
X179692104Y-103641344D01*
X179645285Y-103598712D01*
X179632548Y-103583473D01*
X179587878Y-103526962D01*
X179587878Y-103331086D01*
X179588414Y-103252439D01*
X179590104Y-103194488D01*
X179593072Y-103155375D01*
X179597443Y-103133241D01*
X179601528Y-103126774D01*
X179617453Y-103123611D01*
X179651236Y-103120988D01*
X179698160Y-103119155D01*
X179753507Y-103118357D01*
X179762394Y-103118342D01*
X179883170Y-103123596D01*
X179985840Y-103139763D01*
X180072394Y-103167461D01*
X180144819Y-103207308D01*
X180199749Y-103254258D01*
X180244296Y-103312145D01*
X180269020Y-103375193D01*
X180276252Y-103446782D01*
X181036190Y-103446782D01*
X181034322Y-103356212D01*
X181025978Y-103277312D01*
X181009732Y-103206090D01*
X180984095Y-103135364D01*
X180960099Y-103082993D01*
X180901480Y-102987696D01*
X180823383Y-102899670D01*
X180728185Y-102820517D01*
X180618262Y-102751840D01*
X180495990Y-102695241D01*
X180363745Y-102652321D01*
X180299078Y-102637382D01*
X180162896Y-102615277D01*
X180014451Y-102600694D01*
X179862995Y-102594313D01*
X179736436Y-102595945D01*
X179574550Y-102602724D01*
X179581970Y-102543745D01*
X179601262Y-102444592D01*
X179632396Y-102363872D01*
X179676231Y-102300966D01*
X179733629Y-102255256D01*
X179805452Y-102226122D01*
X179892559Y-102212947D01*
X179995814Y-102215111D01*
X180033789Y-102219112D01*
X180174980Y-102244280D01*
X180311793Y-102285314D01*
X180406322Y-102323315D01*
X180451482Y-102342690D01*
X180489915Y-102358260D01*
X180516266Y-102367905D01*
X180523954Y-102369952D01*
X180533698Y-102360874D01*
X180550417Y-102331905D01*
X180574268Y-102282717D01*
X180605407Y-102212984D01*
X180643993Y-102122379D01*
X180650590Y-102106589D01*
X180680647Y-102034272D01*
X180707626Y-101968925D01*
X180730364Y-101913406D01*
X180747694Y-101870572D01*
X180758452Y-101843281D01*
X180761559Y-101834442D01*
X180751560Y-101829687D01*
X180725283Y-101824410D01*
X180697011Y-101820731D01*
X180666854Y-101815974D01*
X180619067Y-101806528D01*
X180557888Y-101793320D01*
X180487554Y-101777276D01*
X180412306Y-101759320D01*
X180383745Y-101752297D01*
X180278684Y-101726709D01*
X180191020Y-101706647D01*
X180116432Y-101691469D01*
X180050597Y-101680535D01*
X179989193Y-101673204D01*
X179927898Y-101668835D01*
X179862390Y-101666787D01*
X179804372Y-101666389D01*
X179634926Y-101673052D01*
G36*
X181980071Y-100755571D02*
X181819930Y-100776745D01*
X181655990Y-100816885D01*
X181486187Y-100876389D01*
X181308457Y-100955654D01*
X181297190Y-100961199D01*
X181239495Y-100989225D01*
X181187948Y-101013302D01*
X181146309Y-101031749D01*
X181118338Y-101042886D01*
X181108767Y-101045433D01*
X181089550Y-101050441D01*
X181084939Y-101054647D01*
X181090042Y-101065080D01*
X181106082Y-101091368D01*
X181131212Y-101130757D01*
X181163586Y-101180491D01*
X181201357Y-101237815D01*
X181242678Y-101299976D01*
X181285702Y-101364218D01*
X181328583Y-101427785D01*
X181369474Y-101487925D01*
X181406529Y-101541880D01*
X181437900Y-101586897D01*
X181461741Y-101620221D01*
X181476206Y-101639097D01*
X181478191Y-101641287D01*
X181488309Y-101636638D01*
X181510650Y-101619462D01*
X181541220Y-101592940D01*
X181556964Y-101578464D01*
X181653453Y-101503182D01*
X181760164Y-101447741D01*
X181875668Y-101412641D01*
X181998538Y-101398380D01*
X182067939Y-101399551D01*
X182189077Y-101416712D01*
X182298295Y-101452594D01*
X182395918Y-101507459D01*
X182482272Y-101581570D01*
X182557685Y-101675188D01*
X182622482Y-101788576D01*
X182659899Y-101875167D01*
X182703752Y-102010866D01*
X182736072Y-102158350D01*
X182756943Y-102313814D01*
X182766449Y-102473456D01*
X182764673Y-102633473D01*
X182751697Y-102790061D01*
X182727606Y-102939418D01*
X182692482Y-103077740D01*
X182646408Y-103201224D01*
X182630127Y-103235478D01*
X182561880Y-103349564D01*
X182481421Y-103446057D01*
X182389930Y-103524170D01*
X182288589Y-103583117D01*
X182178580Y-103622112D01*
X182061085Y-103640368D01*
X182019617Y-103641711D01*
X181898059Y-103630790D01*
X181777622Y-103597974D01*
X181659834Y-103543939D01*
X181546223Y-103469365D01*
X181454815Y-103391039D01*
X181408285Y-103346508D01*
X181227017Y-103643771D01*
X181181920Y-103717933D01*
X181140681Y-103786146D01*
X181104765Y-103845959D01*
X181075634Y-103894920D01*
X181054750Y-103930579D01*
X181043576Y-103950484D01*
X181042125Y-103953579D01*
X181050354Y-103963218D01*
X181075933Y-103980499D01*
X181115627Y-104003783D01*
X181166203Y-104031434D01*
X181224426Y-104061815D01*
X181287063Y-104093290D01*
X181350879Y-104124222D01*
X181412640Y-104152973D01*
X181469112Y-104177908D01*
X181517062Y-104197389D01*
X181540514Y-104205818D01*
X181674279Y-104243633D01*
X181812173Y-104268636D01*
X181959878Y-104281640D01*
X182086667Y-104283968D01*
X182154622Y-104282873D01*
X182220223Y-104280775D01*
X182277653Y-104277934D01*
X182321097Y-104274606D01*
X182335202Y-104272922D01*
X182474216Y-104244087D01*
X182615743Y-104198968D01*
X182753225Y-104140250D01*
X182880106Y-104070620D01*
X182957611Y-104017941D01*
X183085019Y-103909739D01*
X183203322Y-103783171D01*
X183310328Y-103641366D01*
X183403848Y-103487451D01*
X183481690Y-103324553D01*
X183525544Y-103207256D01*
X183575792Y-103023628D01*
X183609291Y-102829081D01*
X183626051Y-102627825D01*
X183626084Y-102424068D01*
X183609399Y-102222021D01*
X183576007Y-102025892D01*
X183525920Y-101839891D01*
X183522103Y-101828303D01*
X183459219Y-101666250D01*
X183382472Y-101518332D01*
X183289258Y-101380365D01*
X183176973Y-101248161D01*
X183133108Y-101202899D01*
X182996966Y-101078957D01*
X182857009Y-100976415D01*
X182711089Y-100894156D01*
X182557058Y-100831064D01*
X182392768Y-100786023D01*
X182297211Y-100768533D01*
X182138477Y-100752966D01*
X181980071Y-100755571D01*
X181980071Y-100755571D01*
G37*
X181980071Y-100755571D02*
X181819930Y-100776745D01*
X181655990Y-100816885D01*
X181486187Y-100876389D01*
X181308457Y-100955654D01*
X181297190Y-100961199D01*
X181239495Y-100989225D01*
X181187948Y-101013302D01*
X181146309Y-101031749D01*
X181118338Y-101042886D01*
X181108767Y-101045433D01*
X181089550Y-101050441D01*
X181084939Y-101054647D01*
X181090042Y-101065080D01*
X181106082Y-101091368D01*
X181131212Y-101130757D01*
X181163586Y-101180491D01*
X181201357Y-101237815D01*
X181242678Y-101299976D01*
X181285702Y-101364218D01*
X181328583Y-101427785D01*
X181369474Y-101487925D01*
X181406529Y-101541880D01*
X181437900Y-101586897D01*
X181461741Y-101620221D01*
X181476206Y-101639097D01*
X181478191Y-101641287D01*
X181488309Y-101636638D01*
X181510650Y-101619462D01*
X181541220Y-101592940D01*
X181556964Y-101578464D01*
X181653453Y-101503182D01*
X181760164Y-101447741D01*
X181875668Y-101412641D01*
X181998538Y-101398380D01*
X182067939Y-101399551D01*
X182189077Y-101416712D01*
X182298295Y-101452594D01*
X182395918Y-101507459D01*
X182482272Y-101581570D01*
X182557685Y-101675188D01*
X182622482Y-101788576D01*
X182659899Y-101875167D01*
X182703752Y-102010866D01*
X182736072Y-102158350D01*
X182756943Y-102313814D01*
X182766449Y-102473456D01*
X182764673Y-102633473D01*
X182751697Y-102790061D01*
X182727606Y-102939418D01*
X182692482Y-103077740D01*
X182646408Y-103201224D01*
X182630127Y-103235478D01*
X182561880Y-103349564D01*
X182481421Y-103446057D01*
X182389930Y-103524170D01*
X182288589Y-103583117D01*
X182178580Y-103622112D01*
X182061085Y-103640368D01*
X182019617Y-103641711D01*
X181898059Y-103630790D01*
X181777622Y-103597974D01*
X181659834Y-103543939D01*
X181546223Y-103469365D01*
X181454815Y-103391039D01*
X181408285Y-103346508D01*
X181227017Y-103643771D01*
X181181920Y-103717933D01*
X181140681Y-103786146D01*
X181104765Y-103845959D01*
X181075634Y-103894920D01*
X181054750Y-103930579D01*
X181043576Y-103950484D01*
X181042125Y-103953579D01*
X181050354Y-103963218D01*
X181075933Y-103980499D01*
X181115627Y-104003783D01*
X181166203Y-104031434D01*
X181224426Y-104061815D01*
X181287063Y-104093290D01*
X181350879Y-104124222D01*
X181412640Y-104152973D01*
X181469112Y-104177908D01*
X181517062Y-104197389D01*
X181540514Y-104205818D01*
X181674279Y-104243633D01*
X181812173Y-104268636D01*
X181959878Y-104281640D01*
X182086667Y-104283968D01*
X182154622Y-104282873D01*
X182220223Y-104280775D01*
X182277653Y-104277934D01*
X182321097Y-104274606D01*
X182335202Y-104272922D01*
X182474216Y-104244087D01*
X182615743Y-104198968D01*
X182753225Y-104140250D01*
X182880106Y-104070620D01*
X182957611Y-104017941D01*
X183085019Y-103909739D01*
X183203322Y-103783171D01*
X183310328Y-103641366D01*
X183403848Y-103487451D01*
X183481690Y-103324553D01*
X183525544Y-103207256D01*
X183575792Y-103023628D01*
X183609291Y-102829081D01*
X183626051Y-102627825D01*
X183626084Y-102424068D01*
X183609399Y-102222021D01*
X183576007Y-102025892D01*
X183525920Y-101839891D01*
X183522103Y-101828303D01*
X183459219Y-101666250D01*
X183382472Y-101518332D01*
X183289258Y-101380365D01*
X183176973Y-101248161D01*
X183133108Y-101202899D01*
X182996966Y-101078957D01*
X182857009Y-100976415D01*
X182711089Y-100894156D01*
X182557058Y-100831064D01*
X182392768Y-100786023D01*
X182297211Y-100768533D01*
X182138477Y-100752966D01*
X181980071Y-100755571D01*
G36*
X185254900Y-100295554D02*
X185244035Y-100409493D01*
X185212418Y-100517116D01*
X185161515Y-100616115D01*
X185092793Y-100704184D01*
X185007719Y-100779016D01*
X184910732Y-100836884D01*
X184804464Y-100876505D01*
X184697450Y-100895073D01*
X184591800Y-100893934D01*
X184489625Y-100874430D01*
X184393034Y-100837906D01*
X184304138Y-100785705D01*
X184225046Y-100719173D01*
X184157869Y-100639652D01*
X184104717Y-100548487D01*
X184067699Y-100447023D01*
X184048927Y-100336602D01*
X184046989Y-100286706D01*
X184046989Y-100198767D01*
X183995060Y-100198767D01*
X183958753Y-100201611D01*
X183931855Y-100213411D01*
X183904749Y-100237149D01*
X183866367Y-100275531D01*
X183866367Y-102467102D01*
X183866376Y-102729239D01*
X183866408Y-102969741D01*
X183866472Y-103189548D01*
X183866576Y-103389601D01*
X183866727Y-103570844D01*
X183866934Y-103734216D01*
X183867206Y-103880660D01*
X183867550Y-104011117D01*
X183867974Y-104126529D01*
X183868487Y-104227838D01*
X183869097Y-104315984D01*
X183869812Y-104391910D01*
X183870640Y-104456557D01*
X183871589Y-104510867D01*
X183872667Y-104555780D01*
X183873883Y-104592240D01*
X183875245Y-104621187D01*
X183876761Y-104643563D01*
X183878438Y-104660309D01*
X183880286Y-104672368D01*
X183882313Y-104680680D01*
X183884525Y-104686187D01*
X183885608Y-104688037D01*
X183889771Y-104695049D01*
X183893305Y-104701496D01*
X183897135Y-104707400D01*
X183902182Y-104712786D01*
X183909371Y-104717678D01*
X183919623Y-104722098D01*
X183933864Y-104726072D01*
X183953014Y-104729621D01*
X183977999Y-104732770D01*
X184009740Y-104735542D01*
X184049162Y-104737961D01*
X184097186Y-104740051D01*
X184154737Y-104741835D01*
X184222737Y-104743337D01*
X184302110Y-104744580D01*
X184393779Y-104745589D01*
X184498666Y-104746385D01*
X184617696Y-104746994D01*
X184751790Y-104747439D01*
X184901873Y-104747743D01*
X185068867Y-104747930D01*
X185253696Y-104748024D01*
X185457283Y-104748048D01*
X185680550Y-104748025D01*
X185924422Y-104747980D01*
X186189821Y-104747937D01*
X186228204Y-104747932D01*
X186495182Y-104747889D01*
X186740502Y-104747818D01*
X186965083Y-104747713D01*
X187169845Y-104747566D01*
X187355706Y-104747369D01*
X187523588Y-104747116D01*
X187674408Y-104746800D01*
X187809087Y-104746413D01*
X187928544Y-104745947D01*
X188033699Y-104745397D01*
X188125471Y-104744753D01*
X188204779Y-104744011D01*
X188272543Y-104743161D01*
X188329682Y-104742197D01*
X188377117Y-104741111D01*
X188415766Y-104739897D01*
X188446549Y-104738547D01*
X188470385Y-104737055D01*
X188488194Y-104735411D01*
X188500895Y-104733611D01*
X188509408Y-104731645D01*
X188513766Y-104729977D01*
X188522228Y-104726406D01*
X188529997Y-104723770D01*
X188537102Y-104721134D01*
X188543573Y-104717562D01*
X188549439Y-104712121D01*
X188554729Y-104703875D01*
X188559474Y-104691890D01*
X188563702Y-104675231D01*
X188567443Y-104652963D01*
X188570727Y-104624152D01*
X188573583Y-104587863D01*
X188576040Y-104543161D01*
X188578129Y-104489111D01*
X188579878Y-104424779D01*
X188581317Y-104349230D01*
X188582476Y-104261530D01*
X188583383Y-104160743D01*
X188584069Y-104045934D01*
X188584563Y-103916170D01*
X188584895Y-103770515D01*
X188585093Y-103608035D01*
X188585187Y-103427795D01*
X188585208Y-103228860D01*
X188585185Y-103010296D01*
X188585146Y-102771168D01*
X188585122Y-102510540D01*
X188585122Y-102468389D01*
X188585136Y-102205492D01*
X188585161Y-101964232D01*
X188585171Y-101743665D01*
X188585142Y-101542852D01*
X188585048Y-101360849D01*
X188584862Y-101196716D01*
X188584559Y-101049511D01*
X188584114Y-100918292D01*
X188583534Y-100808367D01*
X188280697Y-100808367D01*
X188240907Y-100866211D01*
X188229736Y-100881979D01*
X188219666Y-100895941D01*
X188210638Y-100909284D01*
X188202597Y-100923193D01*
X188195486Y-100938856D01*
X188189247Y-100957458D01*
X188183825Y-100980186D01*
X188179162Y-101008227D01*
X188175201Y-101042767D01*
X188171885Y-101084992D01*
X188169159Y-101136089D01*
X188166964Y-101197244D01*
X188165245Y-101269644D01*
X188163944Y-101354475D01*
X188163005Y-101452922D01*
X188162370Y-101566174D01*
X188161984Y-101695416D01*
X188161788Y-101841834D01*
X188161727Y-102006616D01*
X188161743Y-102190947D01*
X188161780Y-102396013D01*
X188161789Y-102518633D01*
X188161765Y-102735582D01*
X188161731Y-102931142D01*
X188161743Y-103106499D01*
X188161858Y-103262841D01*
X188162130Y-103401357D01*
X188162618Y-103523234D01*
X188163376Y-103629660D01*
X188164462Y-103721822D01*
X188165931Y-103800909D01*
X188167840Y-103868108D01*
X188170244Y-103924607D01*
X188173201Y-103971593D01*
X188176766Y-104010255D01*
X188180995Y-104041780D01*
X188185946Y-104067355D01*
X188191673Y-104088170D01*
X188198233Y-104105411D01*
X188205683Y-104120265D01*
X188214079Y-104133922D01*
X188223476Y-104147569D01*
X188233932Y-104162393D01*
X188240023Y-104171283D01*
X188278796Y-104228900D01*
X187747232Y-104228900D01*
X187623983Y-104228865D01*
X187521487Y-104228715D01*
X187437920Y-104228378D01*
X187371456Y-104227786D01*
X187320271Y-104226867D01*
X187282541Y-104225551D01*
X187256440Y-104223769D01*
X187240144Y-104221451D01*
X187231828Y-104218526D01*
X187229668Y-104214924D01*
X187231839Y-104210575D01*
X187233035Y-104209145D01*
X187258185Y-104172073D01*
X187284083Y-104119272D01*
X187307692Y-104057270D01*
X187315961Y-104030857D01*
X187320578Y-104012916D01*
X187324479Y-103991855D01*
X187327748Y-103965589D01*
X187330466Y-103932032D01*
X187332715Y-103889099D01*
X187334577Y-103834704D01*
X187336136Y-103766762D01*
X187337472Y-103683188D01*
X187338669Y-103581895D01*
X187339808Y-103460800D01*
X187340185Y-103416100D01*
X187341202Y-103290949D01*
X187341960Y-103186582D01*
X187342403Y-103101207D01*
X187342470Y-103033033D01*
X187342105Y-102980265D01*
X187341248Y-102941114D01*
X187339841Y-102913785D01*
X187337825Y-102896486D01*
X187335143Y-102887426D01*
X187331736Y-102884812D01*
X187327544Y-102886851D01*
X187323071Y-102891167D01*
X187312716Y-102904102D01*
X187290658Y-102933176D01*
X187258457Y-102976259D01*
X187217674Y-103031218D01*
X187169870Y-103095923D01*
X187116605Y-103168242D01*
X187059440Y-103246044D01*
X186999937Y-103327198D01*
X186939655Y-103409572D01*
X186880155Y-103491036D01*
X186822998Y-103569457D01*
X186769745Y-103642704D01*
X186721957Y-103708647D01*
X186681193Y-103765154D01*
X186649016Y-103810093D01*
X186626985Y-103841334D01*
X186622417Y-103847966D01*
X186599496Y-103884869D01*
X186572688Y-103932859D01*
X186547289Y-103982397D01*
X186544068Y-103989077D01*
X186522390Y-104037272D01*
X186509804Y-104074834D01*
X186504074Y-104110660D01*
X186502956Y-104152700D01*
X186503590Y-104228900D01*
X185349151Y-104228900D01*
X185440315Y-104135169D01*
X185487112Y-104085275D01*
X185537399Y-104028795D01*
X185583444Y-103974526D01*
X185603869Y-103949173D01*
X185634307Y-103909628D01*
X185674362Y-103856416D01*
X185722861Y-103791167D01*
X185778635Y-103715511D01*
X185840511Y-103631077D01*
X185907319Y-103539494D01*
X185977887Y-103442392D01*
X186051045Y-103341401D01*
X186125621Y-103238150D01*
X186200444Y-103134268D01*
X186274343Y-103031385D01*
X186346146Y-102931131D01*
X186414684Y-102835136D01*
X186478784Y-102745027D01*
X186537275Y-102662436D01*
X186588986Y-102588992D01*
X186632747Y-102526324D01*
X186667385Y-102476061D01*
X186691730Y-102439834D01*
X186704611Y-102419271D01*
X186706369Y-102415168D01*
X186698410Y-102403842D01*
X186677615Y-102376662D01*
X186645347Y-102335329D01*
X186602970Y-102281544D01*
X186551847Y-102217006D01*
X186493341Y-102143418D01*
X186428814Y-102062478D01*
X186359631Y-101975888D01*
X186287153Y-101885348D01*
X186212746Y-101792560D01*
X186153017Y-101718202D01*
X185142011Y-101718202D01*
X185136102Y-101731159D01*
X185121772Y-101753408D01*
X185120725Y-101754891D01*
X185101938Y-101785044D01*
X185082291Y-101821875D01*
X185078392Y-101830011D01*
X185074856Y-101838440D01*
X185071730Y-101848559D01*
X185068986Y-101861760D01*
X185066592Y-101879438D01*
X185064519Y-101902984D01*
X185062735Y-101933793D01*
X185061212Y-101973257D01*
X185059919Y-102022769D01*
X185058826Y-102083723D01*
X185057903Y-102157511D01*
X185057119Y-102245528D01*
X185056445Y-102349165D01*
X185055850Y-102469816D01*
X185055305Y-102608874D01*
X185054779Y-102767732D01*
X185054245Y-102946589D01*
X185053706Y-103131707D01*
X185053272Y-103295645D01*
X185053009Y-103439803D01*
X185052984Y-103565579D01*
X185053265Y-103674371D01*
X185053919Y-103767577D01*
X185055014Y-103846597D01*
X185056618Y-103912828D01*
X185058797Y-103967670D01*
X185061619Y-104012521D01*
X185065151Y-104048778D01*
X185069461Y-104077841D01*
X185074617Y-104101109D01*
X185080685Y-104119979D01*
X185087733Y-104135851D01*
X185095829Y-104150122D01*
X185105040Y-104164191D01*
X185113540Y-104176658D01*
X185130676Y-104202952D01*
X185140822Y-104220537D01*
X185142011Y-104223757D01*
X185131104Y-104224834D01*
X185099911Y-104225835D01*
X185050723Y-104226735D01*
X184985833Y-104227510D01*
X184907530Y-104228137D01*
X184818107Y-104228591D01*
X184719856Y-104228849D01*
X184650945Y-104228900D01*
X184545952Y-104228680D01*
X184449110Y-104228048D01*
X184362607Y-104227049D01*
X184288632Y-104225727D01*
X184229374Y-104224126D01*
X184187020Y-104222291D01*
X184163760Y-104220265D01*
X184159878Y-104218993D01*
X184167576Y-104204091D01*
X184175574Y-104196060D01*
X184188746Y-104178934D01*
X184205985Y-104148683D01*
X184217907Y-104124122D01*
X184244545Y-104065211D01*
X184247620Y-102888345D01*
X184250695Y-101711478D01*
X184696353Y-101711478D01*
X184794170Y-101711642D01*
X184884564Y-101712111D01*
X184965130Y-101712847D01*
X185033462Y-101713816D01*
X185087156Y-101714980D01*
X185123805Y-101716303D01*
X185141004Y-101717749D01*
X185142011Y-101718202D01*
X186153017Y-101718202D01*
X186137770Y-101699222D01*
X186063590Y-101607037D01*
X185991569Y-101517704D01*
X185923069Y-101432924D01*
X185859455Y-101354398D01*
X185802088Y-101283826D01*
X185752333Y-101222909D01*
X185711552Y-101173347D01*
X185694388Y-101152678D01*
X185608096Y-101052016D01*
X185531497Y-100968759D01*
X185462683Y-100900938D01*
X185399748Y-100846589D01*
X185390367Y-100839222D01*
X185350856Y-100808617D01*
X186482616Y-100808367D01*
X186477327Y-100856344D01*
X186480630Y-100913688D01*
X186502161Y-100981963D01*
X186542135Y-101061712D01*
X186587443Y-101133995D01*
X186603661Y-101156640D01*
X186631714Y-101194196D01*
X186669930Y-101244521D01*
X186716637Y-101305473D01*
X186770161Y-101374911D01*
X186828831Y-101450694D01*
X186890975Y-101530680D01*
X186954921Y-101612728D01*
X187018995Y-101694696D01*
X187081527Y-101774443D01*
X187140843Y-101849827D01*
X187195271Y-101918707D01*
X187243139Y-101978942D01*
X187282775Y-102028389D01*
X187312506Y-102064908D01*
X187330661Y-102086358D01*
X187333720Y-102089656D01*
X187336579Y-102081649D01*
X187338793Y-102051355D01*
X187340357Y-101999056D01*
X187341267Y-101925031D01*
X187341520Y-101829563D01*
X187341113Y-101712934D01*
X187340204Y-101592945D01*
X187338882Y-101460833D01*
X187337357Y-101349094D01*
X187335381Y-101255525D01*
X187332706Y-101177919D01*
X187329082Y-101114074D01*
X187324261Y-101061783D01*
X187317994Y-101018844D01*
X187310032Y-100983051D01*
X187300127Y-100952200D01*
X187288031Y-100924086D01*
X187273493Y-100896505D01*
X187258811Y-100871466D01*
X187220814Y-100808367D01*
X188280697Y-100808367D01*
X188583534Y-100808367D01*
X188583501Y-100802117D01*
X188582695Y-100700044D01*
X188581670Y-100611133D01*
X188580400Y-100534441D01*
X188578860Y-100469027D01*
X188577024Y-100413949D01*
X188574867Y-100368265D01*
X188572363Y-100331034D01*
X188569487Y-100301313D01*
X188566213Y-100278162D01*
X188562515Y-100260639D01*
X188558369Y-100247801D01*
X188553747Y-100238708D01*
X188548626Y-100232418D01*
X188542978Y-100227988D01*
X188536779Y-100224478D01*
X188530004Y-100220945D01*
X188524008Y-100217376D01*
X188518775Y-100214800D01*
X188510599Y-100212472D01*
X188498386Y-100210378D01*
X188481041Y-100208507D01*
X188457469Y-100206847D01*
X188426577Y-100205384D01*
X188387268Y-100204108D01*
X188338450Y-100203004D01*
X188279027Y-100202061D01*
X188207904Y-100201267D01*
X188123988Y-100200609D01*
X188026183Y-100200075D01*
X187913394Y-100199653D01*
X187784529Y-100199329D01*
X187638491Y-100199092D01*
X187474186Y-100198930D01*
X187290520Y-100198830D01*
X187086397Y-100198780D01*
X186875253Y-100198767D01*
X185254900Y-100198767D01*
X185254900Y-100295554D01*
X185254900Y-100295554D01*
G37*
X185254900Y-100295554D02*
X185244035Y-100409493D01*
X185212418Y-100517116D01*
X185161515Y-100616115D01*
X185092793Y-100704184D01*
X185007719Y-100779016D01*
X184910732Y-100836884D01*
X184804464Y-100876505D01*
X184697450Y-100895073D01*
X184591800Y-100893934D01*
X184489625Y-100874430D01*
X184393034Y-100837906D01*
X184304138Y-100785705D01*
X184225046Y-100719173D01*
X184157869Y-100639652D01*
X184104717Y-100548487D01*
X184067699Y-100447023D01*
X184048927Y-100336602D01*
X184046989Y-100286706D01*
X184046989Y-100198767D01*
X183995060Y-100198767D01*
X183958753Y-100201611D01*
X183931855Y-100213411D01*
X183904749Y-100237149D01*
X183866367Y-100275531D01*
X183866367Y-102467102D01*
X183866376Y-102729239D01*
X183866408Y-102969741D01*
X183866472Y-103189548D01*
X183866576Y-103389601D01*
X183866727Y-103570844D01*
X183866934Y-103734216D01*
X183867206Y-103880660D01*
X183867550Y-104011117D01*
X183867974Y-104126529D01*
X183868487Y-104227838D01*
X183869097Y-104315984D01*
X183869812Y-104391910D01*
X183870640Y-104456557D01*
X183871589Y-104510867D01*
X183872667Y-104555780D01*
X183873883Y-104592240D01*
X183875245Y-104621187D01*
X183876761Y-104643563D01*
X183878438Y-104660309D01*
X183880286Y-104672368D01*
X183882313Y-104680680D01*
X183884525Y-104686187D01*
X183885608Y-104688037D01*
X183889771Y-104695049D01*
X183893305Y-104701496D01*
X183897135Y-104707400D01*
X183902182Y-104712786D01*
X183909371Y-104717678D01*
X183919623Y-104722098D01*
X183933864Y-104726072D01*
X183953014Y-104729621D01*
X183977999Y-104732770D01*
X184009740Y-104735542D01*
X184049162Y-104737961D01*
X184097186Y-104740051D01*
X184154737Y-104741835D01*
X184222737Y-104743337D01*
X184302110Y-104744580D01*
X184393779Y-104745589D01*
X184498666Y-104746385D01*
X184617696Y-104746994D01*
X184751790Y-104747439D01*
X184901873Y-104747743D01*
X185068867Y-104747930D01*
X185253696Y-104748024D01*
X185457283Y-104748048D01*
X185680550Y-104748025D01*
X185924422Y-104747980D01*
X186189821Y-104747937D01*
X186228204Y-104747932D01*
X186495182Y-104747889D01*
X186740502Y-104747818D01*
X186965083Y-104747713D01*
X187169845Y-104747566D01*
X187355706Y-104747369D01*
X187523588Y-104747116D01*
X187674408Y-104746800D01*
X187809087Y-104746413D01*
X187928544Y-104745947D01*
X188033699Y-104745397D01*
X188125471Y-104744753D01*
X188204779Y-104744011D01*
X188272543Y-104743161D01*
X188329682Y-104742197D01*
X188377117Y-104741111D01*
X188415766Y-104739897D01*
X188446549Y-104738547D01*
X188470385Y-104737055D01*
X188488194Y-104735411D01*
X188500895Y-104733611D01*
X188509408Y-104731645D01*
X188513766Y-104729977D01*
X188522228Y-104726406D01*
X188529997Y-104723770D01*
X188537102Y-104721134D01*
X188543573Y-104717562D01*
X188549439Y-104712121D01*
X188554729Y-104703875D01*
X188559474Y-104691890D01*
X188563702Y-104675231D01*
X188567443Y-104652963D01*
X188570727Y-104624152D01*
X188573583Y-104587863D01*
X188576040Y-104543161D01*
X188578129Y-104489111D01*
X188579878Y-104424779D01*
X188581317Y-104349230D01*
X188582476Y-104261530D01*
X188583383Y-104160743D01*
X188584069Y-104045934D01*
X188584563Y-103916170D01*
X188584895Y-103770515D01*
X188585093Y-103608035D01*
X188585187Y-103427795D01*
X188585208Y-103228860D01*
X188585185Y-103010296D01*
X188585146Y-102771168D01*
X188585122Y-102510540D01*
X188585122Y-102468389D01*
X188585136Y-102205492D01*
X188585161Y-101964232D01*
X188585171Y-101743665D01*
X188585142Y-101542852D01*
X188585048Y-101360849D01*
X188584862Y-101196716D01*
X188584559Y-101049511D01*
X188584114Y-100918292D01*
X188583534Y-100808367D01*
X188280697Y-100808367D01*
X188240907Y-100866211D01*
X188229736Y-100881979D01*
X188219666Y-100895941D01*
X188210638Y-100909284D01*
X188202597Y-100923193D01*
X188195486Y-100938856D01*
X188189247Y-100957458D01*
X188183825Y-100980186D01*
X188179162Y-101008227D01*
X188175201Y-101042767D01*
X188171885Y-101084992D01*
X188169159Y-101136089D01*
X188166964Y-101197244D01*
X188165245Y-101269644D01*
X188163944Y-101354475D01*
X188163005Y-101452922D01*
X188162370Y-101566174D01*
X188161984Y-101695416D01*
X188161788Y-101841834D01*
X188161727Y-102006616D01*
X188161743Y-102190947D01*
X188161780Y-102396013D01*
X188161789Y-102518633D01*
X188161765Y-102735582D01*
X188161731Y-102931142D01*
X188161743Y-103106499D01*
X188161858Y-103262841D01*
X188162130Y-103401357D01*
X188162618Y-103523234D01*
X188163376Y-103629660D01*
X188164462Y-103721822D01*
X188165931Y-103800909D01*
X188167840Y-103868108D01*
X188170244Y-103924607D01*
X188173201Y-103971593D01*
X188176766Y-104010255D01*
X188180995Y-104041780D01*
X188185946Y-104067355D01*
X188191673Y-104088170D01*
X188198233Y-104105411D01*
X188205683Y-104120265D01*
X188214079Y-104133922D01*
X188223476Y-104147569D01*
X188233932Y-104162393D01*
X188240023Y-104171283D01*
X188278796Y-104228900D01*
X187747232Y-104228900D01*
X187623983Y-104228865D01*
X187521487Y-104228715D01*
X187437920Y-104228378D01*
X187371456Y-104227786D01*
X187320271Y-104226867D01*
X187282541Y-104225551D01*
X187256440Y-104223769D01*
X187240144Y-104221451D01*
X187231828Y-104218526D01*
X187229668Y-104214924D01*
X187231839Y-104210575D01*
X187233035Y-104209145D01*
X187258185Y-104172073D01*
X187284083Y-104119272D01*
X187307692Y-104057270D01*
X187315961Y-104030857D01*
X187320578Y-104012916D01*
X187324479Y-103991855D01*
X187327748Y-103965589D01*
X187330466Y-103932032D01*
X187332715Y-103889099D01*
X187334577Y-103834704D01*
X187336136Y-103766762D01*
X187337472Y-103683188D01*
X187338669Y-103581895D01*
X187339808Y-103460800D01*
X187340185Y-103416100D01*
X187341202Y-103290949D01*
X187341960Y-103186582D01*
X187342403Y-103101207D01*
X187342470Y-103033033D01*
X187342105Y-102980265D01*
X187341248Y-102941114D01*
X187339841Y-102913785D01*
X187337825Y-102896486D01*
X187335143Y-102887426D01*
X187331736Y-102884812D01*
X187327544Y-102886851D01*
X187323071Y-102891167D01*
X187312716Y-102904102D01*
X187290658Y-102933176D01*
X187258457Y-102976259D01*
X187217674Y-103031218D01*
X187169870Y-103095923D01*
X187116605Y-103168242D01*
X187059440Y-103246044D01*
X186999937Y-103327198D01*
X186939655Y-103409572D01*
X186880155Y-103491036D01*
X186822998Y-103569457D01*
X186769745Y-103642704D01*
X186721957Y-103708647D01*
X186681193Y-103765154D01*
X186649016Y-103810093D01*
X186626985Y-103841334D01*
X186622417Y-103847966D01*
X186599496Y-103884869D01*
X186572688Y-103932859D01*
X186547289Y-103982397D01*
X186544068Y-103989077D01*
X186522390Y-104037272D01*
X186509804Y-104074834D01*
X186504074Y-104110660D01*
X186502956Y-104152700D01*
X186503590Y-104228900D01*
X185349151Y-104228900D01*
X185440315Y-104135169D01*
X185487112Y-104085275D01*
X185537399Y-104028795D01*
X185583444Y-103974526D01*
X185603869Y-103949173D01*
X185634307Y-103909628D01*
X185674362Y-103856416D01*
X185722861Y-103791167D01*
X185778635Y-103715511D01*
X185840511Y-103631077D01*
X185907319Y-103539494D01*
X185977887Y-103442392D01*
X186051045Y-103341401D01*
X186125621Y-103238150D01*
X186200444Y-103134268D01*
X186274343Y-103031385D01*
X186346146Y-102931131D01*
X186414684Y-102835136D01*
X186478784Y-102745027D01*
X186537275Y-102662436D01*
X186588986Y-102588992D01*
X186632747Y-102526324D01*
X186667385Y-102476061D01*
X186691730Y-102439834D01*
X186704611Y-102419271D01*
X186706369Y-102415168D01*
X186698410Y-102403842D01*
X186677615Y-102376662D01*
X186645347Y-102335329D01*
X186602970Y-102281544D01*
X186551847Y-102217006D01*
X186493341Y-102143418D01*
X186428814Y-102062478D01*
X186359631Y-101975888D01*
X186287153Y-101885348D01*
X186212746Y-101792560D01*
X186153017Y-101718202D01*
X185142011Y-101718202D01*
X185136102Y-101731159D01*
X185121772Y-101753408D01*
X185120725Y-101754891D01*
X185101938Y-101785044D01*
X185082291Y-101821875D01*
X185078392Y-101830011D01*
X185074856Y-101838440D01*
X185071730Y-101848559D01*
X185068986Y-101861760D01*
X185066592Y-101879438D01*
X185064519Y-101902984D01*
X185062735Y-101933793D01*
X185061212Y-101973257D01*
X185059919Y-102022769D01*
X185058826Y-102083723D01*
X185057903Y-102157511D01*
X185057119Y-102245528D01*
X185056445Y-102349165D01*
X185055850Y-102469816D01*
X185055305Y-102608874D01*
X185054779Y-102767732D01*
X185054245Y-102946589D01*
X185053706Y-103131707D01*
X185053272Y-103295645D01*
X185053009Y-103439803D01*
X185052984Y-103565579D01*
X185053265Y-103674371D01*
X185053919Y-103767577D01*
X185055014Y-103846597D01*
X185056618Y-103912828D01*
X185058797Y-103967670D01*
X185061619Y-104012521D01*
X185065151Y-104048778D01*
X185069461Y-104077841D01*
X185074617Y-104101109D01*
X185080685Y-104119979D01*
X185087733Y-104135851D01*
X185095829Y-104150122D01*
X185105040Y-104164191D01*
X185113540Y-104176658D01*
X185130676Y-104202952D01*
X185140822Y-104220537D01*
X185142011Y-104223757D01*
X185131104Y-104224834D01*
X185099911Y-104225835D01*
X185050723Y-104226735D01*
X184985833Y-104227510D01*
X184907530Y-104228137D01*
X184818107Y-104228591D01*
X184719856Y-104228849D01*
X184650945Y-104228900D01*
X184545952Y-104228680D01*
X184449110Y-104228048D01*
X184362607Y-104227049D01*
X184288632Y-104225727D01*
X184229374Y-104224126D01*
X184187020Y-104222291D01*
X184163760Y-104220265D01*
X184159878Y-104218993D01*
X184167576Y-104204091D01*
X184175574Y-104196060D01*
X184188746Y-104178934D01*
X184205985Y-104148683D01*
X184217907Y-104124122D01*
X184244545Y-104065211D01*
X184247620Y-102888345D01*
X184250695Y-101711478D01*
X184696353Y-101711478D01*
X184794170Y-101711642D01*
X184884564Y-101712111D01*
X184965130Y-101712847D01*
X185033462Y-101713816D01*
X185087156Y-101714980D01*
X185123805Y-101716303D01*
X185141004Y-101717749D01*
X185142011Y-101718202D01*
X186153017Y-101718202D01*
X186137770Y-101699222D01*
X186063590Y-101607037D01*
X185991569Y-101517704D01*
X185923069Y-101432924D01*
X185859455Y-101354398D01*
X185802088Y-101283826D01*
X185752333Y-101222909D01*
X185711552Y-101173347D01*
X185694388Y-101152678D01*
X185608096Y-101052016D01*
X185531497Y-100968759D01*
X185462683Y-100900938D01*
X185399748Y-100846589D01*
X185390367Y-100839222D01*
X185350856Y-100808617D01*
X186482616Y-100808367D01*
X186477327Y-100856344D01*
X186480630Y-100913688D01*
X186502161Y-100981963D01*
X186542135Y-101061712D01*
X186587443Y-101133995D01*
X186603661Y-101156640D01*
X186631714Y-101194196D01*
X186669930Y-101244521D01*
X186716637Y-101305473D01*
X186770161Y-101374911D01*
X186828831Y-101450694D01*
X186890975Y-101530680D01*
X186954921Y-101612728D01*
X187018995Y-101694696D01*
X187081527Y-101774443D01*
X187140843Y-101849827D01*
X187195271Y-101918707D01*
X187243139Y-101978942D01*
X187282775Y-102028389D01*
X187312506Y-102064908D01*
X187330661Y-102086358D01*
X187333720Y-102089656D01*
X187336579Y-102081649D01*
X187338793Y-102051355D01*
X187340357Y-101999056D01*
X187341267Y-101925031D01*
X187341520Y-101829563D01*
X187341113Y-101712934D01*
X187340204Y-101592945D01*
X187338882Y-101460833D01*
X187337357Y-101349094D01*
X187335381Y-101255525D01*
X187332706Y-101177919D01*
X187329082Y-101114074D01*
X187324261Y-101061783D01*
X187317994Y-101018844D01*
X187310032Y-100983051D01*
X187300127Y-100952200D01*
X187288031Y-100924086D01*
X187273493Y-100896505D01*
X187258811Y-100871466D01*
X187220814Y-100808367D01*
X188280697Y-100808367D01*
X188583534Y-100808367D01*
X188583501Y-100802117D01*
X188582695Y-100700044D01*
X188581670Y-100611133D01*
X188580400Y-100534441D01*
X188578860Y-100469027D01*
X188577024Y-100413949D01*
X188574867Y-100368265D01*
X188572363Y-100331034D01*
X188569487Y-100301313D01*
X188566213Y-100278162D01*
X188562515Y-100260639D01*
X188558369Y-100247801D01*
X188553747Y-100238708D01*
X188548626Y-100232418D01*
X188542978Y-100227988D01*
X188536779Y-100224478D01*
X188530004Y-100220945D01*
X188524008Y-100217376D01*
X188518775Y-100214800D01*
X188510599Y-100212472D01*
X188498386Y-100210378D01*
X188481041Y-100208507D01*
X188457469Y-100206847D01*
X188426577Y-100205384D01*
X188387268Y-100204108D01*
X188338450Y-100203004D01*
X188279027Y-100202061D01*
X188207904Y-100201267D01*
X188123988Y-100200609D01*
X188026183Y-100200075D01*
X187913394Y-100199653D01*
X187784529Y-100199329D01*
X187638491Y-100199092D01*
X187474186Y-100198930D01*
X187290520Y-100198830D01*
X187086397Y-100198780D01*
X186875253Y-100198767D01*
X185254900Y-100198767D01*
X185254900Y-100295554D01*
G36*
X176079677Y-105081033D02*
X176048298Y-105103276D01*
X176020589Y-105130985D01*
X176020589Y-105440420D01*
X176020662Y-105532299D01*
X176021005Y-105604340D01*
X176021808Y-105659280D01*
X176023259Y-105699860D01*
X176025548Y-105728817D01*
X176028864Y-105748891D01*
X176033395Y-105762821D01*
X176039331Y-105773345D01*
X176043986Y-105779600D01*
X176074717Y-105804173D01*
X176110004Y-105806841D01*
X176142255Y-105791771D01*
X176152912Y-105782874D01*
X176160036Y-105771057D01*
X176164333Y-105752026D01*
X176166509Y-105721492D01*
X176167272Y-105675162D01*
X176167345Y-105639371D01*
X176167345Y-105504545D01*
X176664056Y-105504545D01*
X176664056Y-105627200D01*
X176664569Y-105683287D01*
X176666624Y-105721833D01*
X176670992Y-105747861D01*
X176678444Y-105766397D01*
X176687453Y-105779600D01*
X176718356Y-105804104D01*
X176753304Y-105807006D01*
X176786762Y-105789589D01*
X176795896Y-105780459D01*
X176802348Y-105768355D01*
X176806603Y-105749501D01*
X176809148Y-105720120D01*
X176810471Y-105676437D01*
X176811057Y-105614675D01*
X176811125Y-105600500D01*
X176811609Y-105484131D01*
X176811859Y-105388227D01*
X176811777Y-105310677D01*
X176811269Y-105249369D01*
X176810238Y-105202190D01*
X176808587Y-105167030D01*
X176806221Y-105141776D01*
X176803043Y-105124317D01*
X176798956Y-105112541D01*
X176793866Y-105104335D01*
X176788234Y-105098145D01*
X176756372Y-105078344D01*
X176723143Y-105081033D01*
X176691765Y-105103276D01*
X176679067Y-105117626D01*
X176670974Y-105133478D01*
X176666458Y-105156054D01*
X176664494Y-105190578D01*
X176664056Y-105242276D01*
X176664056Y-105357789D01*
X176167345Y-105357789D01*
X176167345Y-105239256D01*
X176166838Y-105184648D01*
X176164802Y-105147775D01*
X176160465Y-105123807D01*
X176153053Y-105107915D01*
X176144767Y-105098145D01*
X176112906Y-105078344D01*
X176079677Y-105081033D01*
X176079677Y-105081033D01*
G37*
X176079677Y-105081033D02*
X176048298Y-105103276D01*
X176020589Y-105130985D01*
X176020589Y-105440420D01*
X176020662Y-105532299D01*
X176021005Y-105604340D01*
X176021808Y-105659280D01*
X176023259Y-105699860D01*
X176025548Y-105728817D01*
X176028864Y-105748891D01*
X176033395Y-105762821D01*
X176039331Y-105773345D01*
X176043986Y-105779600D01*
X176074717Y-105804173D01*
X176110004Y-105806841D01*
X176142255Y-105791771D01*
X176152912Y-105782874D01*
X176160036Y-105771057D01*
X176164333Y-105752026D01*
X176166509Y-105721492D01*
X176167272Y-105675162D01*
X176167345Y-105639371D01*
X176167345Y-105504545D01*
X176664056Y-105504545D01*
X176664056Y-105627200D01*
X176664569Y-105683287D01*
X176666624Y-105721833D01*
X176670992Y-105747861D01*
X176678444Y-105766397D01*
X176687453Y-105779600D01*
X176718356Y-105804104D01*
X176753304Y-105807006D01*
X176786762Y-105789589D01*
X176795896Y-105780459D01*
X176802348Y-105768355D01*
X176806603Y-105749501D01*
X176809148Y-105720120D01*
X176810471Y-105676437D01*
X176811057Y-105614675D01*
X176811125Y-105600500D01*
X176811609Y-105484131D01*
X176811859Y-105388227D01*
X176811777Y-105310677D01*
X176811269Y-105249369D01*
X176810238Y-105202190D01*
X176808587Y-105167030D01*
X176806221Y-105141776D01*
X176803043Y-105124317D01*
X176798956Y-105112541D01*
X176793866Y-105104335D01*
X176788234Y-105098145D01*
X176756372Y-105078344D01*
X176723143Y-105081033D01*
X176691765Y-105103276D01*
X176679067Y-105117626D01*
X176670974Y-105133478D01*
X176666458Y-105156054D01*
X176664494Y-105190578D01*
X176664056Y-105242276D01*
X176664056Y-105357789D01*
X176167345Y-105357789D01*
X176167345Y-105239256D01*
X176166838Y-105184648D01*
X176164802Y-105147775D01*
X176160465Y-105123807D01*
X176153053Y-105107915D01*
X176144767Y-105098145D01*
X176112906Y-105078344D01*
X176079677Y-105081033D01*
G36*
X177345435Y-105075663D02*
X177266728Y-105076042D01*
X177205637Y-105076833D01*
X177159683Y-105078170D01*
X177126386Y-105080183D01*
X177103264Y-105083006D01*
X177087838Y-105086769D01*
X177077629Y-105091605D01*
X177072687Y-105095322D01*
X177047043Y-105127858D01*
X177043941Y-105161638D01*
X177059789Y-105192326D01*
X177070152Y-105204589D01*
X177081304Y-105212950D01*
X177097465Y-105218157D01*
X177122858Y-105220957D01*
X177161702Y-105222096D01*
X177218220Y-105222321D01*
X177229320Y-105222322D01*
X177375256Y-105222322D01*
X177375256Y-105493256D01*
X177375352Y-105578654D01*
X177375789Y-105644364D01*
X177376788Y-105693274D01*
X177378572Y-105728273D01*
X177381363Y-105752249D01*
X177385383Y-105768093D01*
X177390855Y-105778691D01*
X177397834Y-105786767D01*
X177430766Y-105806612D01*
X177465146Y-105805048D01*
X177496324Y-105782406D01*
X177498614Y-105779600D01*
X177506071Y-105768992D01*
X177511753Y-105756581D01*
X177515899Y-105739350D01*
X177518750Y-105714284D01*
X177520546Y-105678367D01*
X177521528Y-105628583D01*
X177521936Y-105561917D01*
X177522011Y-105486089D01*
X177522011Y-105222322D01*
X177661373Y-105222322D01*
X177721178Y-105221918D01*
X177762582Y-105220340D01*
X177789752Y-105217047D01*
X177806854Y-105211492D01*
X177818057Y-105203131D01*
X177819417Y-105201678D01*
X177835775Y-105168439D01*
X177834328Y-105130862D01*
X177815522Y-105098145D01*
X177808250Y-105091798D01*
X177798873Y-105086766D01*
X177784891Y-105082896D01*
X177763804Y-105080037D01*
X177733111Y-105078035D01*
X177690311Y-105076739D01*
X177632905Y-105075998D01*
X177558390Y-105075658D01*
X177464267Y-105075568D01*
X177444240Y-105075567D01*
X177345435Y-105075663D01*
X177345435Y-105075663D01*
G37*
X177345435Y-105075663D02*
X177266728Y-105076042D01*
X177205637Y-105076833D01*
X177159683Y-105078170D01*
X177126386Y-105080183D01*
X177103264Y-105083006D01*
X177087838Y-105086769D01*
X177077629Y-105091605D01*
X177072687Y-105095322D01*
X177047043Y-105127858D01*
X177043941Y-105161638D01*
X177059789Y-105192326D01*
X177070152Y-105204589D01*
X177081304Y-105212950D01*
X177097465Y-105218157D01*
X177122858Y-105220957D01*
X177161702Y-105222096D01*
X177218220Y-105222321D01*
X177229320Y-105222322D01*
X177375256Y-105222322D01*
X177375256Y-105493256D01*
X177375352Y-105578654D01*
X177375789Y-105644364D01*
X177376788Y-105693274D01*
X177378572Y-105728273D01*
X177381363Y-105752249D01*
X177385383Y-105768093D01*
X177390855Y-105778691D01*
X177397834Y-105786767D01*
X177430766Y-105806612D01*
X177465146Y-105805048D01*
X177496324Y-105782406D01*
X177498614Y-105779600D01*
X177506071Y-105768992D01*
X177511753Y-105756581D01*
X177515899Y-105739350D01*
X177518750Y-105714284D01*
X177520546Y-105678367D01*
X177521528Y-105628583D01*
X177521936Y-105561917D01*
X177522011Y-105486089D01*
X177522011Y-105222322D01*
X177661373Y-105222322D01*
X177721178Y-105221918D01*
X177762582Y-105220340D01*
X177789752Y-105217047D01*
X177806854Y-105211492D01*
X177818057Y-105203131D01*
X177819417Y-105201678D01*
X177835775Y-105168439D01*
X177834328Y-105130862D01*
X177815522Y-105098145D01*
X177808250Y-105091798D01*
X177798873Y-105086766D01*
X177784891Y-105082896D01*
X177763804Y-105080037D01*
X177733111Y-105078035D01*
X177690311Y-105076739D01*
X177632905Y-105075998D01*
X177558390Y-105075658D01*
X177464267Y-105075568D01*
X177444240Y-105075567D01*
X177345435Y-105075663D01*
G36*
X178119886Y-105082377D02*
X178096173Y-105097147D01*
X178069522Y-105118727D01*
X178069522Y-105440273D01*
X178069607Y-105534330D01*
X178069971Y-105608432D01*
X178070776Y-105665204D01*
X178072187Y-105707268D01*
X178074367Y-105737248D01*
X178077479Y-105757767D01*
X178081686Y-105771449D01*
X178087152Y-105780916D01*
X178091028Y-105785582D01*
X178122466Y-105806075D01*
X178158267Y-105805239D01*
X178189627Y-105787764D01*
X178216278Y-105766184D01*
X178216278Y-105118727D01*
X178189627Y-105097147D01*
X178163906Y-105081449D01*
X178142900Y-105075567D01*
X178119886Y-105082377D01*
X178119886Y-105082377D01*
G37*
X178119886Y-105082377D02*
X178096173Y-105097147D01*
X178069522Y-105118727D01*
X178069522Y-105440273D01*
X178069607Y-105534330D01*
X178069971Y-105608432D01*
X178070776Y-105665204D01*
X178072187Y-105707268D01*
X178074367Y-105737248D01*
X178077479Y-105757767D01*
X178081686Y-105771449D01*
X178087152Y-105780916D01*
X178091028Y-105785582D01*
X178122466Y-105806075D01*
X178158267Y-105805239D01*
X178189627Y-105787764D01*
X178216278Y-105766184D01*
X178216278Y-105118727D01*
X178189627Y-105097147D01*
X178163906Y-105081449D01*
X178142900Y-105075567D01*
X178119886Y-105082377D01*
G36*
X178563835Y-105077534D02*
X178544245Y-105084535D01*
X178543490Y-105084877D01*
X178516887Y-105105178D01*
X178502230Y-105126061D01*
X178499362Y-105135852D01*
X178499504Y-105148861D01*
X178503539Y-105167395D01*
X178512354Y-105193757D01*
X178526831Y-105230252D01*
X178547855Y-105279187D01*
X178576312Y-105342865D01*
X178613085Y-105423593D01*
X178633325Y-105467716D01*
X178669875Y-105546485D01*
X178704185Y-105618923D01*
X178734948Y-105682380D01*
X178760852Y-105734208D01*
X178780590Y-105771759D01*
X178792850Y-105792384D01*
X178795276Y-105795233D01*
X178826317Y-105807802D01*
X178861379Y-105806119D01*
X178889500Y-105790832D01*
X178890646Y-105789589D01*
X178901832Y-105772654D01*
X178920596Y-105739670D01*
X178944625Y-105694880D01*
X178971603Y-105642532D01*
X178981299Y-105623242D01*
X179054486Y-105476650D01*
X179134260Y-105635893D01*
X179162733Y-105690915D01*
X179189150Y-105738632D01*
X179211352Y-105775393D01*
X179227181Y-105797544D01*
X179232546Y-105802241D01*
X179274243Y-105808602D01*
X179308651Y-105795233D01*
X179318772Y-105780946D01*
X179336286Y-105749192D01*
X179359765Y-105703097D01*
X179387780Y-105645785D01*
X179418901Y-105580380D01*
X179451701Y-105510007D01*
X179484750Y-105437791D01*
X179516619Y-105366855D01*
X179545881Y-105300325D01*
X179571105Y-105241326D01*
X179590864Y-105192981D01*
X179603728Y-105158415D01*
X179608269Y-105140753D01*
X179608223Y-105140113D01*
X179597174Y-105117888D01*
X179575090Y-105095253D01*
X179573790Y-105094268D01*
X179546647Y-105078925D01*
X179521542Y-105079074D01*
X179512132Y-105081966D01*
X179500666Y-105088218D01*
X179488490Y-105100514D01*
X179474143Y-105121408D01*
X179456164Y-105153449D01*
X179433093Y-105199188D01*
X179403470Y-105261177D01*
X179376755Y-105318398D01*
X179346020Y-105384726D01*
X179318479Y-105444374D01*
X179295562Y-105494225D01*
X179278702Y-105531164D01*
X179269327Y-105552073D01*
X179267960Y-105555345D01*
X179261811Y-105549997D01*
X179247678Y-105527609D01*
X179227443Y-105491446D01*
X179202985Y-105444777D01*
X179193252Y-105425522D01*
X179160283Y-105360504D01*
X179134857Y-105313154D01*
X179114888Y-105280719D01*
X179098290Y-105260446D01*
X179082976Y-105249582D01*
X179066860Y-105245375D01*
X179056357Y-105244900D01*
X179037830Y-105246542D01*
X179021596Y-105253331D01*
X179005465Y-105268066D01*
X178987249Y-105293544D01*
X178964761Y-105332561D01*
X178935811Y-105387914D01*
X178919838Y-105419403D01*
X178893930Y-105469587D01*
X178871333Y-105511204D01*
X178854042Y-105540742D01*
X178844050Y-105554689D01*
X178842691Y-105555270D01*
X178836239Y-105544293D01*
X178821792Y-105515790D01*
X178800797Y-105472744D01*
X178774703Y-105418138D01*
X178744954Y-105354954D01*
X178730320Y-105323571D01*
X178692250Y-105242578D01*
X178661595Y-105180256D01*
X178636763Y-105134571D01*
X178616163Y-105103489D01*
X178598202Y-105084978D01*
X178581290Y-105077004D01*
X178563835Y-105077534D01*
X178563835Y-105077534D01*
G37*
X178563835Y-105077534D02*
X178544245Y-105084535D01*
X178543490Y-105084877D01*
X178516887Y-105105178D01*
X178502230Y-105126061D01*
X178499362Y-105135852D01*
X178499504Y-105148861D01*
X178503539Y-105167395D01*
X178512354Y-105193757D01*
X178526831Y-105230252D01*
X178547855Y-105279187D01*
X178576312Y-105342865D01*
X178613085Y-105423593D01*
X178633325Y-105467716D01*
X178669875Y-105546485D01*
X178704185Y-105618923D01*
X178734948Y-105682380D01*
X178760852Y-105734208D01*
X178780590Y-105771759D01*
X178792850Y-105792384D01*
X178795276Y-105795233D01*
X178826317Y-105807802D01*
X178861379Y-105806119D01*
X178889500Y-105790832D01*
X178890646Y-105789589D01*
X178901832Y-105772654D01*
X178920596Y-105739670D01*
X178944625Y-105694880D01*
X178971603Y-105642532D01*
X178981299Y-105623242D01*
X179054486Y-105476650D01*
X179134260Y-105635893D01*
X179162733Y-105690915D01*
X179189150Y-105738632D01*
X179211352Y-105775393D01*
X179227181Y-105797544D01*
X179232546Y-105802241D01*
X179274243Y-105808602D01*
X179308651Y-105795233D01*
X179318772Y-105780946D01*
X179336286Y-105749192D01*
X179359765Y-105703097D01*
X179387780Y-105645785D01*
X179418901Y-105580380D01*
X179451701Y-105510007D01*
X179484750Y-105437791D01*
X179516619Y-105366855D01*
X179545881Y-105300325D01*
X179571105Y-105241326D01*
X179590864Y-105192981D01*
X179603728Y-105158415D01*
X179608269Y-105140753D01*
X179608223Y-105140113D01*
X179597174Y-105117888D01*
X179575090Y-105095253D01*
X179573790Y-105094268D01*
X179546647Y-105078925D01*
X179521542Y-105079074D01*
X179512132Y-105081966D01*
X179500666Y-105088218D01*
X179488490Y-105100514D01*
X179474143Y-105121408D01*
X179456164Y-105153449D01*
X179433093Y-105199188D01*
X179403470Y-105261177D01*
X179376755Y-105318398D01*
X179346020Y-105384726D01*
X179318479Y-105444374D01*
X179295562Y-105494225D01*
X179278702Y-105531164D01*
X179269327Y-105552073D01*
X179267960Y-105555345D01*
X179261811Y-105549997D01*
X179247678Y-105527609D01*
X179227443Y-105491446D01*
X179202985Y-105444777D01*
X179193252Y-105425522D01*
X179160283Y-105360504D01*
X179134857Y-105313154D01*
X179114888Y-105280719D01*
X179098290Y-105260446D01*
X179082976Y-105249582D01*
X179066860Y-105245375D01*
X179056357Y-105244900D01*
X179037830Y-105246542D01*
X179021596Y-105253331D01*
X179005465Y-105268066D01*
X178987249Y-105293544D01*
X178964761Y-105332561D01*
X178935811Y-105387914D01*
X178919838Y-105419403D01*
X178893930Y-105469587D01*
X178871333Y-105511204D01*
X178854042Y-105540742D01*
X178844050Y-105554689D01*
X178842691Y-105555270D01*
X178836239Y-105544293D01*
X178821792Y-105515790D01*
X178800797Y-105472744D01*
X178774703Y-105418138D01*
X178744954Y-105354954D01*
X178730320Y-105323571D01*
X178692250Y-105242578D01*
X178661595Y-105180256D01*
X178636763Y-105134571D01*
X178616163Y-105103489D01*
X178598202Y-105084978D01*
X178581290Y-105077004D01*
X178563835Y-105077534D01*
G36*
X181290191Y-105075775D02*
X181161212Y-105080136D01*
X181051509Y-105093361D01*
X180959274Y-105116241D01*
X180882698Y-105149570D01*
X180819973Y-105194138D01*
X180769288Y-105250736D01*
X180728837Y-105320158D01*
X180728041Y-105321851D01*
X180703899Y-105383983D01*
X180695297Y-105439009D01*
X180702269Y-105494387D01*
X180724846Y-105557573D01*
X180729128Y-105567189D01*
X180758328Y-105623466D01*
X180791144Y-105666951D01*
X180833498Y-105703917D01*
X180891310Y-105740635D01*
X180894669Y-105742552D01*
X180944996Y-105766727D01*
X181001879Y-105784782D01*
X181068973Y-105797339D01*
X181149935Y-105805022D01*
X181248418Y-105808453D01*
X181283214Y-105808751D01*
X181448906Y-105809345D01*
X181472303Y-105779600D01*
X181479243Y-105769819D01*
X181484658Y-105758397D01*
X181488735Y-105742595D01*
X181491663Y-105719675D01*
X181493633Y-105686896D01*
X181494275Y-105662589D01*
X181337656Y-105662589D01*
X181243774Y-105662589D01*
X181188836Y-105660983D01*
X181132440Y-105656755D01*
X181086155Y-105650792D01*
X181083361Y-105650290D01*
X181001152Y-105628236D01*
X180937386Y-105595100D01*
X180890048Y-105549347D01*
X180857118Y-105489439D01*
X180851392Y-105473561D01*
X180845779Y-105448833D01*
X180848209Y-105424402D01*
X180860033Y-105391900D01*
X180867160Y-105375934D01*
X180890500Y-105333506D01*
X180918620Y-105303740D01*
X180949560Y-105283011D01*
X181011534Y-105256037D01*
X181090849Y-105236498D01*
X181183247Y-105225246D01*
X181250167Y-105222770D01*
X181337656Y-105222322D01*
X181337656Y-105662589D01*
X181494275Y-105662589D01*
X181494832Y-105641521D01*
X181495450Y-105580811D01*
X181495675Y-105502026D01*
X181495700Y-105440420D01*
X181495700Y-105130985D01*
X181467991Y-105103276D01*
X181455694Y-105092044D01*
X181442397Y-105084353D01*
X181423828Y-105079540D01*
X181395714Y-105076946D01*
X181353783Y-105075910D01*
X181293763Y-105075770D01*
X181290191Y-105075775D01*
X181290191Y-105075775D01*
G37*
X181290191Y-105075775D02*
X181161212Y-105080136D01*
X181051509Y-105093361D01*
X180959274Y-105116241D01*
X180882698Y-105149570D01*
X180819973Y-105194138D01*
X180769288Y-105250736D01*
X180728837Y-105320158D01*
X180728041Y-105321851D01*
X180703899Y-105383983D01*
X180695297Y-105439009D01*
X180702269Y-105494387D01*
X180724846Y-105557573D01*
X180729128Y-105567189D01*
X180758328Y-105623466D01*
X180791144Y-105666951D01*
X180833498Y-105703917D01*
X180891310Y-105740635D01*
X180894669Y-105742552D01*
X180944996Y-105766727D01*
X181001879Y-105784782D01*
X181068973Y-105797339D01*
X181149935Y-105805022D01*
X181248418Y-105808453D01*
X181283214Y-105808751D01*
X181448906Y-105809345D01*
X181472303Y-105779600D01*
X181479243Y-105769819D01*
X181484658Y-105758397D01*
X181488735Y-105742595D01*
X181491663Y-105719675D01*
X181493633Y-105686896D01*
X181494275Y-105662589D01*
X181337656Y-105662589D01*
X181243774Y-105662589D01*
X181188836Y-105660983D01*
X181132440Y-105656755D01*
X181086155Y-105650792D01*
X181083361Y-105650290D01*
X181001152Y-105628236D01*
X180937386Y-105595100D01*
X180890048Y-105549347D01*
X180857118Y-105489439D01*
X180851392Y-105473561D01*
X180845779Y-105448833D01*
X180848209Y-105424402D01*
X180860033Y-105391900D01*
X180867160Y-105375934D01*
X180890500Y-105333506D01*
X180918620Y-105303740D01*
X180949560Y-105283011D01*
X181011534Y-105256037D01*
X181090849Y-105236498D01*
X181183247Y-105225246D01*
X181250167Y-105222770D01*
X181337656Y-105222322D01*
X181337656Y-105662589D01*
X181494275Y-105662589D01*
X181494832Y-105641521D01*
X181495450Y-105580811D01*
X181495675Y-105502026D01*
X181495700Y-105440420D01*
X181495700Y-105130985D01*
X181467991Y-105103276D01*
X181455694Y-105092044D01*
X181442397Y-105084353D01*
X181423828Y-105079540D01*
X181395714Y-105076946D01*
X181353783Y-105075910D01*
X181293763Y-105075770D01*
X181290191Y-105075775D01*
G36*
X182078157Y-105075760D02*
X182001799Y-105076674D01*
X181943283Y-105078811D01*
X181900245Y-105082675D01*
X181870317Y-105088767D01*
X181851132Y-105097590D01*
X181840324Y-105109646D01*
X181835527Y-105125439D01*
X181834373Y-105145470D01*
X181834367Y-105147835D01*
X181835369Y-105170492D01*
X181840104Y-105188003D01*
X181851167Y-105201074D01*
X181871152Y-105210413D01*
X181902654Y-105216727D01*
X181948268Y-105220722D01*
X182010587Y-105223106D01*
X182092207Y-105224586D01*
X182117223Y-105224914D01*
X182359300Y-105227967D01*
X182362686Y-105292878D01*
X182366071Y-105357789D01*
X182197924Y-105357789D01*
X182132234Y-105358031D01*
X182085328Y-105359056D01*
X182053417Y-105361311D01*
X182032709Y-105365242D01*
X182019416Y-105371298D01*
X182009745Y-105379924D01*
X182009683Y-105379993D01*
X181992144Y-105413612D01*
X181992778Y-105449948D01*
X182011186Y-105480923D01*
X182014829Y-105484107D01*
X182027759Y-105492312D01*
X182045476Y-105498021D01*
X182071930Y-105501662D01*
X182111068Y-105503667D01*
X182166838Y-105504464D01*
X182202506Y-105504545D01*
X182364945Y-105504545D01*
X182364945Y-105662589D01*
X182118339Y-105662589D01*
X182036920Y-105662731D01*
X181975090Y-105663314D01*
X181929863Y-105664568D01*
X181898252Y-105666727D01*
X181877269Y-105670023D01*
X181863927Y-105674689D01*
X181855239Y-105680957D01*
X181853050Y-105683233D01*
X181836886Y-105714780D01*
X181835703Y-105750668D01*
X181848964Y-105781785D01*
X181859457Y-105791771D01*
X181870371Y-105797269D01*
X181887283Y-105801522D01*
X181912867Y-105804680D01*
X181949799Y-105806892D01*
X182000754Y-105808306D01*
X182068406Y-105809072D01*
X182155431Y-105809338D01*
X182175106Y-105809345D01*
X182263589Y-105809287D01*
X182332273Y-105808967D01*
X182383936Y-105808167D01*
X182421355Y-105806667D01*
X182447310Y-105804249D01*
X182464578Y-105800694D01*
X182475938Y-105795782D01*
X182484168Y-105789295D01*
X182488683Y-105784638D01*
X182495479Y-105776389D01*
X182500788Y-105766169D01*
X182504794Y-105751300D01*
X182507679Y-105729102D01*
X182509626Y-105696893D01*
X182510819Y-105651996D01*
X182511439Y-105591728D01*
X182511671Y-105513411D01*
X182511700Y-105447494D01*
X182511629Y-105355128D01*
X182511292Y-105282617D01*
X182510502Y-105227237D01*
X182509074Y-105186265D01*
X182506821Y-105156978D01*
X182503557Y-105136653D01*
X182499096Y-105122566D01*
X182493252Y-105111995D01*
X182488303Y-105105311D01*
X182464906Y-105075567D01*
X182174726Y-105075567D01*
X182078157Y-105075760D01*
X182078157Y-105075760D01*
G37*
X182078157Y-105075760D02*
X182001799Y-105076674D01*
X181943283Y-105078811D01*
X181900245Y-105082675D01*
X181870317Y-105088767D01*
X181851132Y-105097590D01*
X181840324Y-105109646D01*
X181835527Y-105125439D01*
X181834373Y-105145470D01*
X181834367Y-105147835D01*
X181835369Y-105170492D01*
X181840104Y-105188003D01*
X181851167Y-105201074D01*
X181871152Y-105210413D01*
X181902654Y-105216727D01*
X181948268Y-105220722D01*
X182010587Y-105223106D01*
X182092207Y-105224586D01*
X182117223Y-105224914D01*
X182359300Y-105227967D01*
X182362686Y-105292878D01*
X182366071Y-105357789D01*
X182197924Y-105357789D01*
X182132234Y-105358031D01*
X182085328Y-105359056D01*
X182053417Y-105361311D01*
X182032709Y-105365242D01*
X182019416Y-105371298D01*
X182009745Y-105379924D01*
X182009683Y-105379993D01*
X181992144Y-105413612D01*
X181992778Y-105449948D01*
X182011186Y-105480923D01*
X182014829Y-105484107D01*
X182027759Y-105492312D01*
X182045476Y-105498021D01*
X182071930Y-105501662D01*
X182111068Y-105503667D01*
X182166838Y-105504464D01*
X182202506Y-105504545D01*
X182364945Y-105504545D01*
X182364945Y-105662589D01*
X182118339Y-105662589D01*
X182036920Y-105662731D01*
X181975090Y-105663314D01*
X181929863Y-105664568D01*
X181898252Y-105666727D01*
X181877269Y-105670023D01*
X181863927Y-105674689D01*
X181855239Y-105680957D01*
X181853050Y-105683233D01*
X181836886Y-105714780D01*
X181835703Y-105750668D01*
X181848964Y-105781785D01*
X181859457Y-105791771D01*
X181870371Y-105797269D01*
X181887283Y-105801522D01*
X181912867Y-105804680D01*
X181949799Y-105806892D01*
X182000754Y-105808306D01*
X182068406Y-105809072D01*
X182155431Y-105809338D01*
X182175106Y-105809345D01*
X182263589Y-105809287D01*
X182332273Y-105808967D01*
X182383936Y-105808167D01*
X182421355Y-105806667D01*
X182447310Y-105804249D01*
X182464578Y-105800694D01*
X182475938Y-105795782D01*
X182484168Y-105789295D01*
X182488683Y-105784638D01*
X182495479Y-105776389D01*
X182500788Y-105766169D01*
X182504794Y-105751300D01*
X182507679Y-105729102D01*
X182509626Y-105696893D01*
X182510819Y-105651996D01*
X182511439Y-105591728D01*
X182511671Y-105513411D01*
X182511700Y-105447494D01*
X182511629Y-105355128D01*
X182511292Y-105282617D01*
X182510502Y-105227237D01*
X182509074Y-105186265D01*
X182506821Y-105156978D01*
X182503557Y-105136653D01*
X182499096Y-105122566D01*
X182493252Y-105111995D01*
X182488303Y-105105311D01*
X182464906Y-105075567D01*
X182174726Y-105075567D01*
X182078157Y-105075760D01*
G36*
X183608614Y-105079948D02*
X183585048Y-105093773D01*
X183554235Y-105116381D01*
X183514578Y-105148838D01*
X183464480Y-105192208D01*
X183402343Y-105247558D01*
X183326572Y-105315951D01*
X183239834Y-105394584D01*
X183059211Y-105558378D01*
X183053567Y-105338529D01*
X183051529Y-105262851D01*
X183049563Y-105206494D01*
X183047234Y-105166206D01*
X183044106Y-105138735D01*
X183039745Y-105120829D01*
X183033716Y-105109237D01*
X183025584Y-105100708D01*
X183021272Y-105097123D01*
X182986741Y-105078170D01*
X182953883Y-105080941D01*
X182927818Y-105097133D01*
X182901167Y-105118699D01*
X182897852Y-105433651D01*
X182896935Y-105526279D01*
X182896468Y-105599044D01*
X182896613Y-105654661D01*
X182897532Y-105695842D01*
X182899387Y-105725303D01*
X182902339Y-105745755D01*
X182906550Y-105759913D01*
X182912182Y-105770491D01*
X182918427Y-105778974D01*
X182931939Y-105794707D01*
X182945383Y-105805136D01*
X182960624Y-105809139D01*
X182979526Y-105805594D01*
X183003955Y-105793379D01*
X183035773Y-105771371D01*
X183076848Y-105738449D01*
X183129042Y-105693491D01*
X183194222Y-105635375D01*
X183268056Y-105568599D01*
X183533345Y-105327958D01*
X183538989Y-105547089D01*
X183541031Y-105622628D01*
X183543002Y-105678854D01*
X183545339Y-105719024D01*
X183548481Y-105746396D01*
X183552864Y-105764228D01*
X183558924Y-105775779D01*
X183567100Y-105784307D01*
X183571284Y-105787782D01*
X183608265Y-105806872D01*
X183643208Y-105803993D01*
X183673636Y-105779600D01*
X183680597Y-105769786D01*
X183686023Y-105758326D01*
X183690103Y-105742468D01*
X183693029Y-105719463D01*
X183694992Y-105686562D01*
X183696183Y-105641016D01*
X183696792Y-105580073D01*
X183697011Y-105500986D01*
X183697034Y-105442456D01*
X183696960Y-105350907D01*
X183696613Y-105279187D01*
X183695801Y-105224545D01*
X183694333Y-105184232D01*
X183692019Y-105155498D01*
X183688667Y-105135593D01*
X183684088Y-105121768D01*
X183678089Y-105111272D01*
X183673636Y-105105311D01*
X183662350Y-105091191D01*
X183651801Y-105080529D01*
X183640393Y-105074392D01*
X183626530Y-105073843D01*
X183608614Y-105079948D01*
X183608614Y-105079948D01*
G37*
X183608614Y-105079948D02*
X183585048Y-105093773D01*
X183554235Y-105116381D01*
X183514578Y-105148838D01*
X183464480Y-105192208D01*
X183402343Y-105247558D01*
X183326572Y-105315951D01*
X183239834Y-105394584D01*
X183059211Y-105558378D01*
X183053567Y-105338529D01*
X183051529Y-105262851D01*
X183049563Y-105206494D01*
X183047234Y-105166206D01*
X183044106Y-105138735D01*
X183039745Y-105120829D01*
X183033716Y-105109237D01*
X183025584Y-105100708D01*
X183021272Y-105097123D01*
X182986741Y-105078170D01*
X182953883Y-105080941D01*
X182927818Y-105097133D01*
X182901167Y-105118699D01*
X182897852Y-105433651D01*
X182896935Y-105526279D01*
X182896468Y-105599044D01*
X182896613Y-105654661D01*
X182897532Y-105695842D01*
X182899387Y-105725303D01*
X182902339Y-105745755D01*
X182906550Y-105759913D01*
X182912182Y-105770491D01*
X182918427Y-105778974D01*
X182931939Y-105794707D01*
X182945383Y-105805136D01*
X182960624Y-105809139D01*
X182979526Y-105805594D01*
X183003955Y-105793379D01*
X183035773Y-105771371D01*
X183076848Y-105738449D01*
X183129042Y-105693491D01*
X183194222Y-105635375D01*
X183268056Y-105568599D01*
X183533345Y-105327958D01*
X183538989Y-105547089D01*
X183541031Y-105622628D01*
X183543002Y-105678854D01*
X183545339Y-105719024D01*
X183548481Y-105746396D01*
X183552864Y-105764228D01*
X183558924Y-105775779D01*
X183567100Y-105784307D01*
X183571284Y-105787782D01*
X183608265Y-105806872D01*
X183643208Y-105803993D01*
X183673636Y-105779600D01*
X183680597Y-105769786D01*
X183686023Y-105758326D01*
X183690103Y-105742468D01*
X183693029Y-105719463D01*
X183694992Y-105686562D01*
X183696183Y-105641016D01*
X183696792Y-105580073D01*
X183697011Y-105500986D01*
X183697034Y-105442456D01*
X183696960Y-105350907D01*
X183696613Y-105279187D01*
X183695801Y-105224545D01*
X183694333Y-105184232D01*
X183692019Y-105155498D01*
X183688667Y-105135593D01*
X183684088Y-105121768D01*
X183678089Y-105111272D01*
X183673636Y-105105311D01*
X183662350Y-105091191D01*
X183651801Y-105080529D01*
X183640393Y-105074392D01*
X183626530Y-105073843D01*
X183608614Y-105079948D01*
G36*
X184258581Y-105081099D02*
X184190065Y-105092595D01*
X184137443Y-105110467D01*
X184103208Y-105133999D01*
X184093879Y-105147424D01*
X184084393Y-105178648D01*
X184090777Y-105206895D01*
X184110930Y-105233682D01*
X184142245Y-105246213D01*
X184187683Y-105245196D01*
X184222826Y-105238406D01*
X184300919Y-105225471D01*
X184380726Y-105224242D01*
X184470055Y-105234741D01*
X184494729Y-105239190D01*
X184577791Y-105262608D01*
X184642773Y-105297445D01*
X184688961Y-105343104D01*
X184715645Y-105398994D01*
X184721163Y-105427888D01*
X184717551Y-105486512D01*
X184694229Y-105538379D01*
X184653324Y-105582478D01*
X184596959Y-105617799D01*
X184527260Y-105643329D01*
X184446352Y-105658059D01*
X184356360Y-105660978D01*
X184259410Y-105651075D01*
X184253936Y-105650141D01*
X184215375Y-105642959D01*
X184193994Y-105636021D01*
X184184727Y-105625727D01*
X184182506Y-105608476D01*
X184182456Y-105599341D01*
X184182456Y-105560989D01*
X184250931Y-105560989D01*
X184311400Y-105556847D01*
X184352665Y-105543647D01*
X184376675Y-105520230D01*
X184385377Y-105485436D01*
X184385483Y-105480894D01*
X184380392Y-105451154D01*
X184362933Y-105429919D01*
X184330439Y-105415866D01*
X184280243Y-105407673D01*
X184231623Y-105404661D01*
X184160956Y-105402933D01*
X184109698Y-105405570D01*
X184074739Y-105415300D01*
X184052970Y-105434853D01*
X184041280Y-105466956D01*
X184036560Y-105514338D01*
X184035700Y-105576571D01*
X184037109Y-105646035D01*
X184041348Y-105693286D01*
X184048436Y-105718512D01*
X184049811Y-105720488D01*
X184088728Y-105752008D01*
X184145786Y-105776970D01*
X184217369Y-105794840D01*
X184299858Y-105805086D01*
X184389639Y-105807173D01*
X184483092Y-105800568D01*
X184538056Y-105792456D01*
X184624266Y-105768054D01*
X184704392Y-105728162D01*
X184771477Y-105676387D01*
X184781673Y-105666039D01*
X184814802Y-105622535D01*
X184844694Y-105568618D01*
X184867857Y-105512092D01*
X184880798Y-105460759D01*
X184882358Y-105441044D01*
X184875718Y-105399919D01*
X184858068Y-105348752D01*
X184832797Y-105294894D01*
X184803289Y-105245695D01*
X184777219Y-105212834D01*
X184716265Y-105163952D01*
X184637469Y-105125045D01*
X184543657Y-105096994D01*
X184437650Y-105080679D01*
X184340500Y-105076692D01*
X184258581Y-105081099D01*
X184258581Y-105081099D01*
G37*
X184258581Y-105081099D02*
X184190065Y-105092595D01*
X184137443Y-105110467D01*
X184103208Y-105133999D01*
X184093879Y-105147424D01*
X184084393Y-105178648D01*
X184090777Y-105206895D01*
X184110930Y-105233682D01*
X184142245Y-105246213D01*
X184187683Y-105245196D01*
X184222826Y-105238406D01*
X184300919Y-105225471D01*
X184380726Y-105224242D01*
X184470055Y-105234741D01*
X184494729Y-105239190D01*
X184577791Y-105262608D01*
X184642773Y-105297445D01*
X184688961Y-105343104D01*
X184715645Y-105398994D01*
X184721163Y-105427888D01*
X184717551Y-105486512D01*
X184694229Y-105538379D01*
X184653324Y-105582478D01*
X184596959Y-105617799D01*
X184527260Y-105643329D01*
X184446352Y-105658059D01*
X184356360Y-105660978D01*
X184259410Y-105651075D01*
X184253936Y-105650141D01*
X184215375Y-105642959D01*
X184193994Y-105636021D01*
X184184727Y-105625727D01*
X184182506Y-105608476D01*
X184182456Y-105599341D01*
X184182456Y-105560989D01*
X184250931Y-105560989D01*
X184311400Y-105556847D01*
X184352665Y-105543647D01*
X184376675Y-105520230D01*
X184385377Y-105485436D01*
X184385483Y-105480894D01*
X184380392Y-105451154D01*
X184362933Y-105429919D01*
X184330439Y-105415866D01*
X184280243Y-105407673D01*
X184231623Y-105404661D01*
X184160956Y-105402933D01*
X184109698Y-105405570D01*
X184074739Y-105415300D01*
X184052970Y-105434853D01*
X184041280Y-105466956D01*
X184036560Y-105514338D01*
X184035700Y-105576571D01*
X184037109Y-105646035D01*
X184041348Y-105693286D01*
X184048436Y-105718512D01*
X184049811Y-105720488D01*
X184088728Y-105752008D01*
X184145786Y-105776970D01*
X184217369Y-105794840D01*
X184299858Y-105805086D01*
X184389639Y-105807173D01*
X184483092Y-105800568D01*
X184538056Y-105792456D01*
X184624266Y-105768054D01*
X184704392Y-105728162D01*
X184771477Y-105676387D01*
X184781673Y-105666039D01*
X184814802Y-105622535D01*
X184844694Y-105568618D01*
X184867857Y-105512092D01*
X184880798Y-105460759D01*
X184882358Y-105441044D01*
X184875718Y-105399919D01*
X184858068Y-105348752D01*
X184832797Y-105294894D01*
X184803289Y-105245695D01*
X184777219Y-105212834D01*
X184716265Y-105163952D01*
X184637469Y-105125045D01*
X184543657Y-105096994D01*
X184437650Y-105080679D01*
X184340500Y-105076692D01*
X184258581Y-105081099D01*
G36*
X185232322Y-105098145D02*
X185225742Y-105105718D01*
X185220579Y-105115487D01*
X185216664Y-105130071D01*
X185213824Y-105152085D01*
X185211887Y-105184148D01*
X185210683Y-105228875D01*
X185210039Y-105288885D01*
X185209784Y-105366794D01*
X185209745Y-105442456D01*
X185209814Y-105536302D01*
X185210138Y-105610189D01*
X185210886Y-105666732D01*
X185212232Y-105708549D01*
X185214346Y-105738257D01*
X185217400Y-105758473D01*
X185221566Y-105771814D01*
X185227016Y-105780898D01*
X185232322Y-105786767D01*
X185265326Y-105806447D01*
X185300491Y-105804681D01*
X185331955Y-105783217D01*
X185339184Y-105774837D01*
X185344834Y-105765114D01*
X185349099Y-105751361D01*
X185352173Y-105730889D01*
X185354252Y-105701012D01*
X185355530Y-105659041D01*
X185356201Y-105602289D01*
X185356459Y-105528067D01*
X185356500Y-105444037D01*
X185356500Y-105130985D01*
X185328791Y-105103276D01*
X185294637Y-105079963D01*
X185261506Y-105079123D01*
X185232322Y-105098145D01*
X185232322Y-105098145D01*
G37*
X185232322Y-105098145D02*
X185225742Y-105105718D01*
X185220579Y-105115487D01*
X185216664Y-105130071D01*
X185213824Y-105152085D01*
X185211887Y-105184148D01*
X185210683Y-105228875D01*
X185210039Y-105288885D01*
X185209784Y-105366794D01*
X185209745Y-105442456D01*
X185209814Y-105536302D01*
X185210138Y-105610189D01*
X185210886Y-105666732D01*
X185212232Y-105708549D01*
X185214346Y-105738257D01*
X185217400Y-105758473D01*
X185221566Y-105771814D01*
X185227016Y-105780898D01*
X185232322Y-105786767D01*
X185265326Y-105806447D01*
X185300491Y-105804681D01*
X185331955Y-105783217D01*
X185339184Y-105774837D01*
X185344834Y-105765114D01*
X185349099Y-105751361D01*
X185352173Y-105730889D01*
X185354252Y-105701012D01*
X185355530Y-105659041D01*
X185356201Y-105602289D01*
X185356459Y-105528067D01*
X185356500Y-105444037D01*
X185356500Y-105130985D01*
X185328791Y-105103276D01*
X185294637Y-105079963D01*
X185261506Y-105079123D01*
X185232322Y-105098145D01*
G36*
X186000203Y-105076851D02*
X185925388Y-105082081D01*
X185855806Y-105090250D01*
X185795502Y-105101050D01*
X185748520Y-105114173D01*
X185718906Y-105129313D01*
X185714360Y-105133769D01*
X185698554Y-105168350D01*
X185703347Y-105203851D01*
X185727864Y-105234225D01*
X185729034Y-105235096D01*
X185743454Y-105244454D01*
X185758508Y-105249376D01*
X185779505Y-105249973D01*
X185811757Y-105246361D01*
X185860573Y-105238654D01*
X185864500Y-105238005D01*
X185937239Y-105229069D01*
X186015717Y-105224661D01*
X186094427Y-105224619D01*
X186167861Y-105228779D01*
X186230511Y-105236979D01*
X186276870Y-105249057D01*
X186279916Y-105250271D01*
X186313548Y-105269115D01*
X186325364Y-105288185D01*
X186316114Y-105306939D01*
X186286547Y-105324837D01*
X186237411Y-105341337D01*
X186169457Y-105355896D01*
X186124145Y-105362906D01*
X186029956Y-105376389D01*
X185955044Y-105388714D01*
X185896217Y-105400949D01*
X185850285Y-105414161D01*
X185814055Y-105429417D01*
X185784338Y-105447785D01*
X185757942Y-105470331D01*
X185736730Y-105492471D01*
X185711565Y-105523319D01*
X185699181Y-105549845D01*
X185695308Y-105582526D01*
X185695167Y-105594495D01*
X185698076Y-105634212D01*
X185709702Y-105663759D01*
X185729823Y-105689986D01*
X185770716Y-105730076D01*
X185816317Y-105760649D01*
X185870013Y-105782703D01*
X185935192Y-105797235D01*
X186015244Y-105805241D01*
X186113557Y-105807718D01*
X186129789Y-105807677D01*
X186195349Y-105806318D01*
X186260366Y-105803230D01*
X186317752Y-105798856D01*
X186360422Y-105793640D01*
X186363872Y-105793041D01*
X186406296Y-105782991D01*
X186442280Y-105770296D01*
X186462650Y-105758690D01*
X186481607Y-105728072D01*
X186482927Y-105692418D01*
X186466585Y-105660644D01*
X186462929Y-105657051D01*
X186447815Y-105646376D01*
X186428915Y-105641776D01*
X186399662Y-105642559D01*
X186364151Y-105646627D01*
X186324470Y-105650262D01*
X186268845Y-105653328D01*
X186203906Y-105655553D01*
X186136285Y-105656664D01*
X186118500Y-105656737D01*
X186050628Y-105656464D01*
X186000954Y-105655146D01*
X185965110Y-105652327D01*
X185938724Y-105647550D01*
X185917426Y-105640357D01*
X185904626Y-105634367D01*
X185876500Y-105617733D01*
X185858568Y-105602668D01*
X185855947Y-105598397D01*
X185861476Y-105580763D01*
X185887760Y-105563692D01*
X185932978Y-105547958D01*
X185995308Y-105534338D01*
X186013671Y-105531304D01*
X186109590Y-105516238D01*
X186186141Y-105503646D01*
X186246280Y-105492611D01*
X186292960Y-105482220D01*
X186329137Y-105471556D01*
X186357765Y-105459705D01*
X186381798Y-105445751D01*
X186404192Y-105428781D01*
X186427902Y-105407878D01*
X186435880Y-105400549D01*
X186463853Y-105373199D01*
X186478660Y-105351529D01*
X186484452Y-105326732D01*
X186485389Y-105295483D01*
X186475075Y-105234205D01*
X186444252Y-105182140D01*
X186393095Y-105139458D01*
X186321783Y-105106325D01*
X186270900Y-105091464D01*
X186215600Y-105081866D01*
X186149353Y-105076436D01*
X186076206Y-105074867D01*
X186000203Y-105076851D01*
X186000203Y-105076851D01*
G37*
X186000203Y-105076851D02*
X185925388Y-105082081D01*
X185855806Y-105090250D01*
X185795502Y-105101050D01*
X185748520Y-105114173D01*
X185718906Y-105129313D01*
X185714360Y-105133769D01*
X185698554Y-105168350D01*
X185703347Y-105203851D01*
X185727864Y-105234225D01*
X185729034Y-105235096D01*
X185743454Y-105244454D01*
X185758508Y-105249376D01*
X185779505Y-105249973D01*
X185811757Y-105246361D01*
X185860573Y-105238654D01*
X185864500Y-105238005D01*
X185937239Y-105229069D01*
X186015717Y-105224661D01*
X186094427Y-105224619D01*
X186167861Y-105228779D01*
X186230511Y-105236979D01*
X186276870Y-105249057D01*
X186279916Y-105250271D01*
X186313548Y-105269115D01*
X186325364Y-105288185D01*
X186316114Y-105306939D01*
X186286547Y-105324837D01*
X186237411Y-105341337D01*
X186169457Y-105355896D01*
X186124145Y-105362906D01*
X186029956Y-105376389D01*
X185955044Y-105388714D01*
X185896217Y-105400949D01*
X185850285Y-105414161D01*
X185814055Y-105429417D01*
X185784338Y-105447785D01*
X185757942Y-105470331D01*
X185736730Y-105492471D01*
X185711565Y-105523319D01*
X185699181Y-105549845D01*
X185695308Y-105582526D01*
X185695167Y-105594495D01*
X185698076Y-105634212D01*
X185709702Y-105663759D01*
X185729823Y-105689986D01*
X185770716Y-105730076D01*
X185816317Y-105760649D01*
X185870013Y-105782703D01*
X185935192Y-105797235D01*
X186015244Y-105805241D01*
X186113557Y-105807718D01*
X186129789Y-105807677D01*
X186195349Y-105806318D01*
X186260366Y-105803230D01*
X186317752Y-105798856D01*
X186360422Y-105793640D01*
X186363872Y-105793041D01*
X186406296Y-105782991D01*
X186442280Y-105770296D01*
X186462650Y-105758690D01*
X186481607Y-105728072D01*
X186482927Y-105692418D01*
X186466585Y-105660644D01*
X186462929Y-105657051D01*
X186447815Y-105646376D01*
X186428915Y-105641776D01*
X186399662Y-105642559D01*
X186364151Y-105646627D01*
X186324470Y-105650262D01*
X186268845Y-105653328D01*
X186203906Y-105655553D01*
X186136285Y-105656664D01*
X186118500Y-105656737D01*
X186050628Y-105656464D01*
X186000954Y-105655146D01*
X185965110Y-105652327D01*
X185938724Y-105647550D01*
X185917426Y-105640357D01*
X185904626Y-105634367D01*
X185876500Y-105617733D01*
X185858568Y-105602668D01*
X185855947Y-105598397D01*
X185861476Y-105580763D01*
X185887760Y-105563692D01*
X185932978Y-105547958D01*
X185995308Y-105534338D01*
X186013671Y-105531304D01*
X186109590Y-105516238D01*
X186186141Y-105503646D01*
X186246280Y-105492611D01*
X186292960Y-105482220D01*
X186329137Y-105471556D01*
X186357765Y-105459705D01*
X186381798Y-105445751D01*
X186404192Y-105428781D01*
X186427902Y-105407878D01*
X186435880Y-105400549D01*
X186463853Y-105373199D01*
X186478660Y-105351529D01*
X186484452Y-105326732D01*
X186485389Y-105295483D01*
X186475075Y-105234205D01*
X186444252Y-105182140D01*
X186393095Y-105139458D01*
X186321783Y-105106325D01*
X186270900Y-105091464D01*
X186215600Y-105081866D01*
X186149353Y-105076436D01*
X186076206Y-105074867D01*
X186000203Y-105076851D01*
G36*
X187021294Y-105075646D02*
X186951886Y-105076018D01*
X186899497Y-105076885D01*
X186861347Y-105078446D01*
X186834659Y-105080903D01*
X186816653Y-105084457D01*
X186804549Y-105089310D01*
X186795569Y-105095661D01*
X186792318Y-105098584D01*
X186772543Y-105129642D01*
X186768982Y-105165328D01*
X186781991Y-105197010D01*
X186788006Y-105203413D01*
X186797735Y-105209621D01*
X186813401Y-105214410D01*
X186837908Y-105218014D01*
X186874161Y-105220664D01*
X186925065Y-105222595D01*
X186993526Y-105224039D01*
X187056117Y-105224918D01*
X187303834Y-105227967D01*
X187307219Y-105292878D01*
X187310605Y-105357789D01*
X187142458Y-105357789D01*
X187069459Y-105358419D01*
X187016017Y-105361053D01*
X186979128Y-105366809D01*
X186955788Y-105376804D01*
X186942994Y-105392156D01*
X186937742Y-105413982D01*
X186936945Y-105434238D01*
X186939423Y-105459092D01*
X186948777Y-105477406D01*
X186967883Y-105490137D01*
X186999618Y-105498241D01*
X187046859Y-105502676D01*
X187112483Y-105504399D01*
X187148301Y-105504545D01*
X187309478Y-105504545D01*
X187309478Y-105662589D01*
X187061122Y-105662589D01*
X186979713Y-105662702D01*
X186917842Y-105663212D01*
X186872468Y-105664370D01*
X186840554Y-105666430D01*
X186819059Y-105669646D01*
X186804943Y-105674272D01*
X186795168Y-105680559D01*
X186790189Y-105685167D01*
X186773110Y-105712060D01*
X186767611Y-105735967D01*
X186775463Y-105765167D01*
X186790189Y-105786767D01*
X186798046Y-105793566D01*
X186808188Y-105798846D01*
X186823344Y-105802798D01*
X186846241Y-105805613D01*
X186879609Y-105807482D01*
X186926175Y-105808598D01*
X186988667Y-105809151D01*
X187069814Y-105809333D01*
X187111922Y-105809345D01*
X187202098Y-105809265D01*
X187272424Y-105808898D01*
X187325629Y-105808052D01*
X187364440Y-105806536D01*
X187391587Y-105804159D01*
X187409798Y-105800729D01*
X187421800Y-105796054D01*
X187430322Y-105789944D01*
X187433656Y-105786767D01*
X187440255Y-105779170D01*
X187445427Y-105769370D01*
X187449346Y-105754739D01*
X187452184Y-105732652D01*
X187454115Y-105700482D01*
X187455312Y-105655603D01*
X187455948Y-105595389D01*
X187456197Y-105517213D01*
X187456234Y-105444423D01*
X187456200Y-105351207D01*
X187455965Y-105277931D01*
X187455330Y-105221958D01*
X187454094Y-105180651D01*
X187452056Y-105151372D01*
X187449017Y-105131484D01*
X187444777Y-105118350D01*
X187439135Y-105109332D01*
X187431891Y-105101793D01*
X187430106Y-105100112D01*
X187421445Y-105092672D01*
X187411382Y-105086909D01*
X187397125Y-105082612D01*
X187375883Y-105079564D01*
X187344864Y-105077551D01*
X187301277Y-105076360D01*
X187242331Y-105075775D01*
X187165234Y-105075583D01*
X187110501Y-105075567D01*
X187021294Y-105075646D01*
X187021294Y-105075646D01*
G37*
X187021294Y-105075646D02*
X186951886Y-105076018D01*
X186899497Y-105076885D01*
X186861347Y-105078446D01*
X186834659Y-105080903D01*
X186816653Y-105084457D01*
X186804549Y-105089310D01*
X186795569Y-105095661D01*
X186792318Y-105098584D01*
X186772543Y-105129642D01*
X186768982Y-105165328D01*
X186781991Y-105197010D01*
X186788006Y-105203413D01*
X186797735Y-105209621D01*
X186813401Y-105214410D01*
X186837908Y-105218014D01*
X186874161Y-105220664D01*
X186925065Y-105222595D01*
X186993526Y-105224039D01*
X187056117Y-105224918D01*
X187303834Y-105227967D01*
X187307219Y-105292878D01*
X187310605Y-105357789D01*
X187142458Y-105357789D01*
X187069459Y-105358419D01*
X187016017Y-105361053D01*
X186979128Y-105366809D01*
X186955788Y-105376804D01*
X186942994Y-105392156D01*
X186937742Y-105413982D01*
X186936945Y-105434238D01*
X186939423Y-105459092D01*
X186948777Y-105477406D01*
X186967883Y-105490137D01*
X186999618Y-105498241D01*
X187046859Y-105502676D01*
X187112483Y-105504399D01*
X187148301Y-105504545D01*
X187309478Y-105504545D01*
X187309478Y-105662589D01*
X187061122Y-105662589D01*
X186979713Y-105662702D01*
X186917842Y-105663212D01*
X186872468Y-105664370D01*
X186840554Y-105666430D01*
X186819059Y-105669646D01*
X186804943Y-105674272D01*
X186795168Y-105680559D01*
X186790189Y-105685167D01*
X186773110Y-105712060D01*
X186767611Y-105735967D01*
X186775463Y-105765167D01*
X186790189Y-105786767D01*
X186798046Y-105793566D01*
X186808188Y-105798846D01*
X186823344Y-105802798D01*
X186846241Y-105805613D01*
X186879609Y-105807482D01*
X186926175Y-105808598D01*
X186988667Y-105809151D01*
X187069814Y-105809333D01*
X187111922Y-105809345D01*
X187202098Y-105809265D01*
X187272424Y-105808898D01*
X187325629Y-105808052D01*
X187364440Y-105806536D01*
X187391587Y-105804159D01*
X187409798Y-105800729D01*
X187421800Y-105796054D01*
X187430322Y-105789944D01*
X187433656Y-105786767D01*
X187440255Y-105779170D01*
X187445427Y-105769370D01*
X187449346Y-105754739D01*
X187452184Y-105732652D01*
X187454115Y-105700482D01*
X187455312Y-105655603D01*
X187455948Y-105595389D01*
X187456197Y-105517213D01*
X187456234Y-105444423D01*
X187456200Y-105351207D01*
X187455965Y-105277931D01*
X187455330Y-105221958D01*
X187454094Y-105180651D01*
X187452056Y-105151372D01*
X187449017Y-105131484D01*
X187444777Y-105118350D01*
X187439135Y-105109332D01*
X187431891Y-105101793D01*
X187430106Y-105100112D01*
X187421445Y-105092672D01*
X187411382Y-105086909D01*
X187397125Y-105082612D01*
X187375883Y-105079564D01*
X187344864Y-105077551D01*
X187301277Y-105076360D01*
X187242331Y-105075775D01*
X187165234Y-105075583D01*
X187110501Y-105075567D01*
X187021294Y-105075646D01*
G36*
X188429871Y-105075566D02*
X188390389Y-105075967D01*
X188274700Y-105078759D01*
X188177811Y-105087050D01*
X188096419Y-105101732D01*
X188027223Y-105123693D01*
X187966920Y-105153822D01*
X187912208Y-105193010D01*
X187892667Y-105210032D01*
X187860250Y-105249863D01*
X187831020Y-105303913D01*
X187808491Y-105363823D01*
X187796179Y-105421239D01*
X187794900Y-105442456D01*
X187802917Y-105501269D01*
X187824399Y-105565513D01*
X187855499Y-105626321D01*
X187892366Y-105674830D01*
X187898354Y-105680682D01*
X187949079Y-105721821D01*
X188004625Y-105753935D01*
X188068196Y-105777865D01*
X188142994Y-105794453D01*
X188232222Y-105804541D01*
X188339082Y-105808969D01*
X188388028Y-105809345D01*
X188450262Y-105809045D01*
X188494028Y-105807792D01*
X188523431Y-105805054D01*
X188542579Y-105800301D01*
X188555577Y-105793001D01*
X188562545Y-105786767D01*
X188569126Y-105779194D01*
X188574288Y-105769424D01*
X188578203Y-105754840D01*
X188581043Y-105732826D01*
X188582980Y-105700764D01*
X188584184Y-105656036D01*
X188584828Y-105596026D01*
X188585083Y-105518117D01*
X188585122Y-105442456D01*
X188585370Y-105341541D01*
X188585317Y-105260927D01*
X188584357Y-105222322D01*
X188438367Y-105222322D01*
X188438367Y-105662589D01*
X188345234Y-105662504D01*
X188289193Y-105660896D01*
X188230499Y-105656756D01*
X188181528Y-105650964D01*
X188180038Y-105650726D01*
X188100892Y-105631590D01*
X188039502Y-105601787D01*
X187992805Y-105559378D01*
X187963135Y-105513461D01*
X187944853Y-105462526D01*
X187946271Y-105414700D01*
X187967488Y-105363433D01*
X188008989Y-105310399D01*
X188066498Y-105271100D01*
X188141250Y-105244831D01*
X188191208Y-105235535D01*
X188247916Y-105229007D01*
X188308019Y-105224282D01*
X188359139Y-105222317D01*
X188362167Y-105222308D01*
X188438367Y-105222322D01*
X188584357Y-105222322D01*
X188583760Y-105198351D01*
X188579498Y-105151555D01*
X188571330Y-105118278D01*
X188558056Y-105096259D01*
X188538474Y-105083239D01*
X188511383Y-105076957D01*
X188475582Y-105075153D01*
X188429871Y-105075566D01*
X188429871Y-105075566D01*
G37*
X188429871Y-105075566D02*
X188390389Y-105075967D01*
X188274700Y-105078759D01*
X188177811Y-105087050D01*
X188096419Y-105101732D01*
X188027223Y-105123693D01*
X187966920Y-105153822D01*
X187912208Y-105193010D01*
X187892667Y-105210032D01*
X187860250Y-105249863D01*
X187831020Y-105303913D01*
X187808491Y-105363823D01*
X187796179Y-105421239D01*
X187794900Y-105442456D01*
X187802917Y-105501269D01*
X187824399Y-105565513D01*
X187855499Y-105626321D01*
X187892366Y-105674830D01*
X187898354Y-105680682D01*
X187949079Y-105721821D01*
X188004625Y-105753935D01*
X188068196Y-105777865D01*
X188142994Y-105794453D01*
X188232222Y-105804541D01*
X188339082Y-105808969D01*
X188388028Y-105809345D01*
X188450262Y-105809045D01*
X188494028Y-105807792D01*
X188523431Y-105805054D01*
X188542579Y-105800301D01*
X188555577Y-105793001D01*
X188562545Y-105786767D01*
X188569126Y-105779194D01*
X188574288Y-105769424D01*
X188578203Y-105754840D01*
X188581043Y-105732826D01*
X188582980Y-105700764D01*
X188584184Y-105656036D01*
X188584828Y-105596026D01*
X188585083Y-105518117D01*
X188585122Y-105442456D01*
X188585370Y-105341541D01*
X188585317Y-105260927D01*
X188584357Y-105222322D01*
X188438367Y-105222322D01*
X188438367Y-105662589D01*
X188345234Y-105662504D01*
X188289193Y-105660896D01*
X188230499Y-105656756D01*
X188181528Y-105650964D01*
X188180038Y-105650726D01*
X188100892Y-105631590D01*
X188039502Y-105601787D01*
X187992805Y-105559378D01*
X187963135Y-105513461D01*
X187944853Y-105462526D01*
X187946271Y-105414700D01*
X187967488Y-105363433D01*
X188008989Y-105310399D01*
X188066498Y-105271100D01*
X188141250Y-105244831D01*
X188191208Y-105235535D01*
X188247916Y-105229007D01*
X188308019Y-105224282D01*
X188359139Y-105222317D01*
X188362167Y-105222308D01*
X188438367Y-105222322D01*
X188584357Y-105222322D01*
X188583760Y-105198351D01*
X188579498Y-105151555D01*
X188571330Y-105118278D01*
X188558056Y-105096259D01*
X188538474Y-105083239D01*
X188511383Y-105076957D01*
X188475582Y-105075153D01*
X188429871Y-105075566D01*
G04 #@! TO.C,by Mr. Dano*
D11*
X199976833Y-103195380D02*
X199976833Y-102195380D01*
X199976833Y-102576333D02*
X199881595Y-102528714D01*
X199691119Y-102528714D01*
X199595880Y-102576333D01*
X199548261Y-102623952D01*
X199500642Y-102719190D01*
X199500642Y-103004904D01*
X199548261Y-103100142D01*
X199595880Y-103147761D01*
X199691119Y-103195380D01*
X199881595Y-103195380D01*
X199976833Y-103147761D01*
X199167309Y-102528714D02*
X198929214Y-103195380D01*
X198691119Y-102528714D02*
X198929214Y-103195380D01*
X199024452Y-103433476D01*
X199072071Y-103481095D01*
X199167309Y-103528714D01*
X197548261Y-103195380D02*
X197548261Y-102195380D01*
X197214928Y-102909666D01*
X196881595Y-102195380D01*
X196881595Y-103195380D01*
X196405404Y-103195380D02*
X196405404Y-102528714D01*
X196405404Y-102719190D02*
X196357785Y-102623952D01*
X196310166Y-102576333D01*
X196214928Y-102528714D01*
X196119690Y-102528714D01*
X195786357Y-103100142D02*
X195738738Y-103147761D01*
X195786357Y-103195380D01*
X195833976Y-103147761D01*
X195786357Y-103100142D01*
X195786357Y-103195380D01*
X194548261Y-103195380D02*
X194548261Y-102195380D01*
X194310166Y-102195380D01*
X194167309Y-102243000D01*
X194072071Y-102338238D01*
X194024452Y-102433476D01*
X193976833Y-102623952D01*
X193976833Y-102766809D01*
X194024452Y-102957285D01*
X194072071Y-103052523D01*
X194167309Y-103147761D01*
X194310166Y-103195380D01*
X194548261Y-103195380D01*
X193119690Y-103195380D02*
X193119690Y-102671571D01*
X193167309Y-102576333D01*
X193262547Y-102528714D01*
X193453023Y-102528714D01*
X193548261Y-102576333D01*
X193119690Y-103147761D02*
X193214928Y-103195380D01*
X193453023Y-103195380D01*
X193548261Y-103147761D01*
X193595880Y-103052523D01*
X193595880Y-102957285D01*
X193548261Y-102862047D01*
X193453023Y-102814428D01*
X193214928Y-102814428D01*
X193119690Y-102766809D01*
X192643500Y-102528714D02*
X192643500Y-103195380D01*
X192643500Y-102623952D02*
X192595880Y-102576333D01*
X192500642Y-102528714D01*
X192357785Y-102528714D01*
X192262547Y-102576333D01*
X192214928Y-102671571D01*
X192214928Y-103195380D01*
X191595880Y-103195380D02*
X191691119Y-103147761D01*
X191738738Y-103100142D01*
X191786357Y-103004904D01*
X191786357Y-102719190D01*
X191738738Y-102623952D01*
X191691119Y-102576333D01*
X191595880Y-102528714D01*
X191453023Y-102528714D01*
X191357785Y-102576333D01*
X191310166Y-102623952D01*
X191262547Y-102719190D01*
X191262547Y-103004904D01*
X191310166Y-103100142D01*
X191357785Y-103147761D01*
X191453023Y-103195380D01*
X191595880Y-103195380D01*
G04 #@! TD*
M02*
