G04 #@! TF.GenerationSoftware,KiCad,Pcbnew,(5.0.1)-3*
G04 #@! TF.CreationDate,2018-12-07T17:12:27+00:00*
G04 #@! TF.ProjectId,daughterDisplay,6461756768746572446973706C61792E,rev?*
G04 #@! TF.SameCoordinates,Original*
G04 #@! TF.FileFunction,Copper,L1,Top,Signal*
G04 #@! TF.FilePolarity,Positive*
%FSLAX46Y46*%
G04 Gerber Fmt 4.6, Leading zero omitted, Abs format (unit mm)*
G04 Created by KiCad (PCBNEW (5.0.1)-3) date 07/12/2018 17:12:27*
%MOMM*%
%LPD*%
G01*
G04 APERTURE LIST*
G04 #@! TA.AperFunction,ComponentPad*
%ADD10R,1.700000X1.700000*%
G04 #@! TD*
G04 #@! TA.AperFunction,ComponentPad*
%ADD11O,1.700000X1.700000*%
G04 #@! TD*
G04 #@! TA.AperFunction,ComponentPad*
%ADD12R,1.600000X2.400000*%
G04 #@! TD*
G04 #@! TA.AperFunction,ComponentPad*
%ADD13O,1.600000X2.400000*%
G04 #@! TD*
G04 #@! TA.AperFunction,Conductor*
%ADD14C,0.250000*%
G04 #@! TD*
G04 APERTURE END LIST*
D10*
G04 #@! TO.P,J1,1*
G04 #@! TO.N,Net-(DIS1-Pad1)*
X175704000Y-109792000D03*
D11*
G04 #@! TO.P,J1,2*
G04 #@! TO.N,Net-(DIS1-Pad2)*
X175704000Y-107252000D03*
G04 #@! TO.P,J1,3*
G04 #@! TO.N,Net-(DIS1-Pad3)*
X178244000Y-109792000D03*
G04 #@! TO.P,J1,4*
G04 #@! TO.N,Net-(DIS1-Pad4)*
X178244000Y-107252000D03*
G04 #@! TO.P,J1,5*
G04 #@! TO.N,Net-(DIS1-Pad5)*
X180784000Y-109792000D03*
G04 #@! TO.P,J1,6*
G04 #@! TO.N,Net-(DIS1-Pad6)*
X180784000Y-107252000D03*
G04 #@! TO.P,J1,7*
G04 #@! TO.N,Net-(DIS1-Pad7)*
X183324000Y-109792000D03*
G04 #@! TO.P,J1,8*
G04 #@! TO.N,Net-(DIS1-Pad8)*
X183324000Y-107252000D03*
G04 #@! TO.P,J1,9*
G04 #@! TO.N,Net-(DIS1-Pad9)*
X185864000Y-109792000D03*
G04 #@! TO.P,J1,10*
G04 #@! TO.N,Net-(DIS1-Pad10)*
X185864000Y-107252000D03*
G04 #@! TO.P,J1,11*
G04 #@! TO.N,Net-(DIS1-Pad11)*
X188404000Y-109792000D03*
G04 #@! TO.P,J1,12*
G04 #@! TO.N,Net-(J1-Pad12)*
X188404000Y-107252000D03*
G04 #@! TD*
D12*
G04 #@! TO.P,DIS1,1*
G04 #@! TO.N,Net-(DIS1-Pad1)*
X175641000Y-98615500D03*
D13*
G04 #@! TO.P,DIS1,7*
G04 #@! TO.N,Net-(DIS1-Pad7)*
X188341000Y-90995500D03*
G04 #@! TO.P,DIS1,2*
G04 #@! TO.N,Net-(DIS1-Pad2)*
X178181000Y-98615500D03*
G04 #@! TO.P,DIS1,8*
G04 #@! TO.N,Net-(DIS1-Pad8)*
X185801000Y-90995500D03*
G04 #@! TO.P,DIS1,3*
G04 #@! TO.N,Net-(DIS1-Pad3)*
X180721000Y-98615500D03*
G04 #@! TO.P,DIS1,9*
G04 #@! TO.N,Net-(DIS1-Pad9)*
X183261000Y-90995500D03*
G04 #@! TO.P,DIS1,4*
G04 #@! TO.N,Net-(DIS1-Pad4)*
X183261000Y-98615500D03*
G04 #@! TO.P,DIS1,10*
G04 #@! TO.N,Net-(DIS1-Pad10)*
X180721000Y-90995500D03*
G04 #@! TO.P,DIS1,5*
G04 #@! TO.N,Net-(DIS1-Pad5)*
X185801000Y-98615500D03*
G04 #@! TO.P,DIS1,11*
G04 #@! TO.N,Net-(DIS1-Pad11)*
X178181000Y-90995500D03*
G04 #@! TO.P,DIS1,6*
G04 #@! TO.N,Net-(DIS1-Pad6)*
X188341000Y-98615500D03*
G04 #@! TO.P,DIS1,12*
G04 #@! TO.N,Net-(DIS1-Pad12)*
X175641000Y-90995500D03*
G04 #@! TD*
D14*
G04 #@! TO.N,Net-(DIS1-Pad7)*
X183324000Y-109792000D02*
X184499300Y-109792000D01*
X188341000Y-90995500D02*
X188341000Y-92520800D01*
X188341000Y-92520800D02*
X187134000Y-93727800D01*
X187134000Y-93727800D02*
X187134000Y-110189500D01*
X187134000Y-110189500D02*
X186356200Y-110967300D01*
X186356200Y-110967300D02*
X185307200Y-110967300D01*
X185307200Y-110967300D02*
X184499300Y-110159400D01*
X184499300Y-110159400D02*
X184499300Y-109792000D01*
G04 #@! TO.N,Net-(DIS1-Pad8)*
X183324000Y-107252000D02*
X183324000Y-106076700D01*
X185801000Y-90995500D02*
X185801000Y-92520800D01*
X185801000Y-92520800D02*
X184499300Y-93822500D01*
X184499300Y-93822500D02*
X184499300Y-104901400D01*
X184499300Y-104901400D02*
X183324000Y-106076700D01*
G04 #@! TO.N,Net-(DIS1-Pad3)*
X178244000Y-109792000D02*
X178244000Y-108616700D01*
X180721000Y-98615500D02*
X180721000Y-100140800D01*
X180721000Y-100140800D02*
X179419300Y-101442500D01*
X179419300Y-101442500D02*
X179419300Y-107808800D01*
X179419300Y-107808800D02*
X178611400Y-108616700D01*
X178611400Y-108616700D02*
X178244000Y-108616700D01*
G04 #@! TO.N,Net-(DIS1-Pad9)*
X183261000Y-90995500D02*
X183261000Y-92520800D01*
X183261000Y-92520800D02*
X182108700Y-93673100D01*
X182108700Y-93673100D02*
X182108700Y-107701400D01*
X182108700Y-107701400D02*
X182834700Y-108427400D01*
X182834700Y-108427400D02*
X184499400Y-108427400D01*
X184499400Y-108427400D02*
X185864000Y-109792000D01*
G04 #@! TD*
M02*
