G04 #@! TF.GenerationSoftware,KiCad,Pcbnew,(5.0.1)-3*
G04 #@! TF.CreationDate,2018-12-07T17:12:27+00:00*
G04 #@! TF.ProjectId,daughterDisplay,6461756768746572446973706C61792E,rev?*
G04 #@! TF.SameCoordinates,Original*
G04 #@! TF.FileFunction,Copper,L2,Bot,Signal*
G04 #@! TF.FilePolarity,Positive*
%FSLAX46Y46*%
G04 Gerber Fmt 4.6, Leading zero omitted, Abs format (unit mm)*
G04 Created by KiCad (PCBNEW (5.0.1)-3) date 07/12/2018 17:12:27*
%MOMM*%
%LPD*%
G01*
G04 APERTURE LIST*
G04 #@! TA.AperFunction,EtchedComponent*
%ADD10C,0.381000*%
G04 #@! TD*
G04 #@! TA.AperFunction,ComponentPad*
%ADD11R,1.700000X1.700000*%
G04 #@! TD*
G04 #@! TA.AperFunction,ComponentPad*
%ADD12O,1.700000X1.700000*%
G04 #@! TD*
G04 #@! TA.AperFunction,ComponentPad*
%ADD13R,1.600000X2.400000*%
G04 #@! TD*
G04 #@! TA.AperFunction,ComponentPad*
%ADD14O,1.600000X2.400000*%
G04 #@! TD*
G04 #@! TA.AperFunction,Conductor*
%ADD15C,0.250000*%
G04 #@! TD*
G04 APERTURE END LIST*
D10*
G04 #@! TO.C,by Mr. Dano*
X194437000Y-107823000D02*
X194818000Y-107823000D01*
X194056000Y-107823000D02*
X194437000Y-107823000D01*
X193548000Y-107569000D02*
X194056000Y-107823000D01*
X193294000Y-107442000D02*
X193548000Y-107569000D01*
X193167000Y-107061000D02*
X193294000Y-107442000D01*
X193167000Y-106680000D02*
X193167000Y-107061000D01*
X193294000Y-106299000D02*
X193167000Y-106680000D01*
X193548000Y-105791000D02*
X193294000Y-106299000D01*
X193802000Y-105410000D02*
X193548000Y-105791000D01*
X194310000Y-104902000D02*
X193802000Y-105410000D01*
X194945000Y-104648000D02*
X194310000Y-104902000D01*
X195580000Y-104521000D02*
X194945000Y-104648000D01*
X196088000Y-104521000D02*
X195580000Y-104521000D01*
X196723000Y-104775000D02*
X196088000Y-104521000D01*
X197358000Y-105156000D02*
X196723000Y-104775000D01*
X197866000Y-105664000D02*
X197358000Y-105156000D01*
X198120000Y-106299000D02*
X197866000Y-105664000D01*
X198247000Y-106807000D02*
X198120000Y-106299000D01*
X198247000Y-107061000D02*
X198247000Y-106807000D01*
X196850000Y-107823000D02*
X196469000Y-107823000D01*
X197485000Y-107696000D02*
X196850000Y-107823000D01*
X197993000Y-107569000D02*
X197485000Y-107696000D01*
X198120000Y-107315000D02*
X197993000Y-107569000D01*
X198247000Y-107061000D02*
X198120000Y-107315000D01*
X196723000Y-108585000D02*
X196723000Y-107823000D01*
X196723000Y-108966000D02*
X196723000Y-108585000D01*
X195580000Y-109601000D02*
X195961000Y-109601000D01*
X195072000Y-109474000D02*
X195580000Y-109601000D01*
X194691000Y-109347000D02*
X195072000Y-109474000D01*
X194564000Y-108966000D02*
X194691000Y-109347000D01*
X194564000Y-108585000D02*
X194564000Y-108966000D01*
X194564000Y-107823000D02*
X194564000Y-108585000D01*
X196342000Y-109474000D02*
X195961000Y-109601000D01*
X196596000Y-109220000D02*
X196342000Y-109474000D01*
X196723000Y-108966000D02*
X196596000Y-109220000D01*
X195961000Y-107442000D02*
X195707000Y-106680000D01*
X195453000Y-107442000D02*
X195961000Y-107442000D01*
X195707000Y-106680000D02*
X195453000Y-107442000D01*
X194974981Y-106680000D02*
G75*
G03X194974981Y-106680000I-283981J0D01*
G01*
X197006981Y-106680000D02*
G75*
G03X197006981Y-106680000I-283981J0D01*
G01*
X196215000Y-108712000D02*
X196215000Y-108204000D01*
X195072000Y-108712000D02*
X196215000Y-108712000D01*
X195072000Y-108204000D02*
X195072000Y-108712000D01*
X196215000Y-108204000D02*
X195072000Y-108204000D01*
X195580000Y-108331000D02*
X195580000Y-108585000D01*
X193421000Y-105410000D02*
X192786000Y-104902000D01*
X192786000Y-104902000D02*
X192786000Y-104394000D01*
X192786000Y-104902000D02*
X192278000Y-104775000D01*
X197358000Y-108204000D02*
X198374000Y-109093000D01*
X198374000Y-109093000D02*
X198755000Y-109093000D01*
X198374000Y-109093000D02*
X198374000Y-109601000D01*
X198120000Y-105410000D02*
X198628000Y-105029000D01*
X198628000Y-105029000D02*
X198628000Y-104648000D01*
X198628000Y-105029000D02*
X199009000Y-105156000D01*
X193040000Y-109093000D02*
X192786000Y-109093000D01*
X193929000Y-108204000D02*
X193040000Y-109093000D01*
X193040000Y-109474000D02*
X192913000Y-109474000D01*
X193040000Y-109093000D02*
X193040000Y-109474000D01*
G04 #@! TD*
D11*
G04 #@! TO.P,J1,1*
G04 #@! TO.N,Net-(DIS1-Pad1)*
X175704000Y-109792000D03*
D12*
G04 #@! TO.P,J1,2*
G04 #@! TO.N,Net-(DIS1-Pad2)*
X175704000Y-107252000D03*
G04 #@! TO.P,J1,3*
G04 #@! TO.N,Net-(DIS1-Pad3)*
X178244000Y-109792000D03*
G04 #@! TO.P,J1,4*
G04 #@! TO.N,Net-(DIS1-Pad4)*
X178244000Y-107252000D03*
G04 #@! TO.P,J1,5*
G04 #@! TO.N,Net-(DIS1-Pad5)*
X180784000Y-109792000D03*
G04 #@! TO.P,J1,6*
G04 #@! TO.N,Net-(DIS1-Pad6)*
X180784000Y-107252000D03*
G04 #@! TO.P,J1,7*
G04 #@! TO.N,Net-(DIS1-Pad7)*
X183324000Y-109792000D03*
G04 #@! TO.P,J1,8*
G04 #@! TO.N,Net-(DIS1-Pad8)*
X183324000Y-107252000D03*
G04 #@! TO.P,J1,9*
G04 #@! TO.N,Net-(DIS1-Pad9)*
X185864000Y-109792000D03*
G04 #@! TO.P,J1,10*
G04 #@! TO.N,Net-(DIS1-Pad10)*
X185864000Y-107252000D03*
G04 #@! TO.P,J1,11*
G04 #@! TO.N,Net-(DIS1-Pad11)*
X188404000Y-109792000D03*
G04 #@! TO.P,J1,12*
G04 #@! TO.N,Net-(J1-Pad12)*
X188404000Y-107252000D03*
G04 #@! TD*
D13*
G04 #@! TO.P,DIS1,1*
G04 #@! TO.N,Net-(DIS1-Pad1)*
X175641000Y-98615500D03*
D14*
G04 #@! TO.P,DIS1,7*
G04 #@! TO.N,Net-(DIS1-Pad7)*
X188341000Y-90995500D03*
G04 #@! TO.P,DIS1,2*
G04 #@! TO.N,Net-(DIS1-Pad2)*
X178181000Y-98615500D03*
G04 #@! TO.P,DIS1,8*
G04 #@! TO.N,Net-(DIS1-Pad8)*
X185801000Y-90995500D03*
G04 #@! TO.P,DIS1,3*
G04 #@! TO.N,Net-(DIS1-Pad3)*
X180721000Y-98615500D03*
G04 #@! TO.P,DIS1,9*
G04 #@! TO.N,Net-(DIS1-Pad9)*
X183261000Y-90995500D03*
G04 #@! TO.P,DIS1,4*
G04 #@! TO.N,Net-(DIS1-Pad4)*
X183261000Y-98615500D03*
G04 #@! TO.P,DIS1,10*
G04 #@! TO.N,Net-(DIS1-Pad10)*
X180721000Y-90995500D03*
G04 #@! TO.P,DIS1,5*
G04 #@! TO.N,Net-(DIS1-Pad5)*
X185801000Y-98615500D03*
G04 #@! TO.P,DIS1,11*
G04 #@! TO.N,Net-(DIS1-Pad11)*
X178181000Y-90995500D03*
G04 #@! TO.P,DIS1,6*
G04 #@! TO.N,Net-(DIS1-Pad6)*
X188341000Y-98615500D03*
G04 #@! TO.P,DIS1,12*
G04 #@! TO.N,Net-(DIS1-Pad12)*
X175641000Y-90995500D03*
G04 #@! TD*
D15*
G04 #@! TO.N,Net-(DIS1-Pad1)*
X175704000Y-109792000D02*
X175704000Y-108616700D01*
X175641000Y-98615500D02*
X175641000Y-100140800D01*
X175641000Y-100140800D02*
X174528700Y-101253100D01*
X174528700Y-101253100D02*
X174528700Y-107808800D01*
X174528700Y-107808800D02*
X175336600Y-108616700D01*
X175336600Y-108616700D02*
X175704000Y-108616700D01*
G04 #@! TO.N,Net-(DIS1-Pad2)*
X178181000Y-98615500D02*
X178181000Y-100140800D01*
X178181000Y-100140800D02*
X175704000Y-102617800D01*
X175704000Y-102617800D02*
X175704000Y-107252000D01*
G04 #@! TO.N,Net-(DIS1-Pad4)*
X183261000Y-98615500D02*
X183261000Y-100140800D01*
X183261000Y-100140800D02*
X178244000Y-105157800D01*
X178244000Y-105157800D02*
X178244000Y-107252000D01*
G04 #@! TO.N,Net-(DIS1-Pad10)*
X185864000Y-107252000D02*
X185864000Y-106076700D01*
X180721000Y-90995500D02*
X180721000Y-92520800D01*
X180721000Y-92520800D02*
X184161700Y-95961500D01*
X184161700Y-95961500D02*
X187695500Y-95961500D01*
X187695500Y-95961500D02*
X189518100Y-97784100D01*
X189518100Y-97784100D02*
X189518100Y-102422600D01*
X189518100Y-102422600D02*
X185864000Y-106076700D01*
G04 #@! TO.N,Net-(DIS1-Pad5)*
X180784000Y-109792000D02*
X180784000Y-108616700D01*
X185801000Y-98615500D02*
X185801000Y-100140800D01*
X185801000Y-100140800D02*
X179608700Y-106333100D01*
X179608700Y-106333100D02*
X179608700Y-107808800D01*
X179608700Y-107808800D02*
X180416600Y-108616700D01*
X180416600Y-108616700D02*
X180784000Y-108616700D01*
G04 #@! TO.N,Net-(DIS1-Pad11)*
X188404000Y-108616700D02*
X188771300Y-108616700D01*
X188771300Y-108616700D02*
X190006900Y-107381100D01*
X190006900Y-107381100D02*
X190006900Y-97601600D01*
X190006900Y-97601600D02*
X186071100Y-93665800D01*
X186071100Y-93665800D02*
X183937700Y-93665800D01*
X183937700Y-93665800D02*
X181991000Y-91719100D01*
X181991000Y-91719100D02*
X181991000Y-90265200D01*
X181991000Y-90265200D02*
X181196000Y-89470200D01*
X181196000Y-89470200D02*
X178181000Y-89470200D01*
X188404000Y-109792000D02*
X188404000Y-108616700D01*
X178181000Y-90995500D02*
X178181000Y-89470200D01*
G04 #@! TO.N,Net-(DIS1-Pad6)*
X180784000Y-107252000D02*
X181959300Y-107252000D01*
X188341000Y-98615500D02*
X188341000Y-100140800D01*
X188341000Y-100140800D02*
X181959300Y-106522500D01*
X181959300Y-106522500D02*
X181959300Y-107252000D01*
G04 #@! TD*
M02*
