G04 #@! TF.GenerationSoftware,KiCad,Pcbnew,(5.0.1)-3*
G04 #@! TF.CreationDate,2018-12-07T17:12:27+00:00*
G04 #@! TF.ProjectId,daughterDisplay,6461756768746572446973706C61792E,rev?*
G04 #@! TF.SameCoordinates,Original*
G04 #@! TF.FileFunction,Soldermask,Top*
G04 #@! TF.FilePolarity,Negative*
%FSLAX46Y46*%
G04 Gerber Fmt 4.6, Leading zero omitted, Abs format (unit mm)*
G04 Created by KiCad (PCBNEW (5.0.1)-3) date 07/12/2018 17:12:27*
%MOMM*%
%LPD*%
G01*
G04 APERTURE LIST*
%ADD10C,0.100000*%
G04 APERTURE END LIST*
D10*
G36*
X188514442Y-108897518D02*
X188580627Y-108904037D01*
X188693853Y-108938384D01*
X188750467Y-108955557D01*
X188889087Y-109029652D01*
X188906991Y-109039222D01*
X188942729Y-109068552D01*
X189044186Y-109151814D01*
X189127448Y-109253271D01*
X189156778Y-109289009D01*
X189156779Y-109289011D01*
X189240443Y-109445533D01*
X189240443Y-109445534D01*
X189291963Y-109615373D01*
X189309359Y-109792000D01*
X189291963Y-109968627D01*
X189257616Y-110081853D01*
X189240443Y-110138467D01*
X189166348Y-110277087D01*
X189156778Y-110294991D01*
X189127448Y-110330729D01*
X189044186Y-110432186D01*
X188942729Y-110515448D01*
X188906991Y-110544778D01*
X188906989Y-110544779D01*
X188750467Y-110628443D01*
X188693853Y-110645616D01*
X188580627Y-110679963D01*
X188514443Y-110686481D01*
X188448260Y-110693000D01*
X188359740Y-110693000D01*
X188293557Y-110686481D01*
X188227373Y-110679963D01*
X188114147Y-110645616D01*
X188057533Y-110628443D01*
X187901011Y-110544779D01*
X187901009Y-110544778D01*
X187865271Y-110515448D01*
X187763814Y-110432186D01*
X187680552Y-110330729D01*
X187651222Y-110294991D01*
X187641652Y-110277087D01*
X187567557Y-110138467D01*
X187550384Y-110081853D01*
X187516037Y-109968627D01*
X187498641Y-109792000D01*
X187516037Y-109615373D01*
X187567557Y-109445534D01*
X187567557Y-109445533D01*
X187651221Y-109289011D01*
X187651222Y-109289009D01*
X187680552Y-109253271D01*
X187763814Y-109151814D01*
X187865271Y-109068552D01*
X187901009Y-109039222D01*
X187918913Y-109029652D01*
X188057533Y-108955557D01*
X188114147Y-108938384D01*
X188227373Y-108904037D01*
X188293558Y-108897518D01*
X188359740Y-108891000D01*
X188448260Y-108891000D01*
X188514442Y-108897518D01*
X188514442Y-108897518D01*
G37*
G36*
X183434442Y-108897518D02*
X183500627Y-108904037D01*
X183613853Y-108938384D01*
X183670467Y-108955557D01*
X183809087Y-109029652D01*
X183826991Y-109039222D01*
X183862729Y-109068552D01*
X183964186Y-109151814D01*
X184047448Y-109253271D01*
X184076778Y-109289009D01*
X184076779Y-109289011D01*
X184160443Y-109445533D01*
X184160443Y-109445534D01*
X184211963Y-109615373D01*
X184229359Y-109792000D01*
X184211963Y-109968627D01*
X184177616Y-110081853D01*
X184160443Y-110138467D01*
X184086348Y-110277087D01*
X184076778Y-110294991D01*
X184047448Y-110330729D01*
X183964186Y-110432186D01*
X183862729Y-110515448D01*
X183826991Y-110544778D01*
X183826989Y-110544779D01*
X183670467Y-110628443D01*
X183613853Y-110645616D01*
X183500627Y-110679963D01*
X183434443Y-110686481D01*
X183368260Y-110693000D01*
X183279740Y-110693000D01*
X183213557Y-110686481D01*
X183147373Y-110679963D01*
X183034147Y-110645616D01*
X182977533Y-110628443D01*
X182821011Y-110544779D01*
X182821009Y-110544778D01*
X182785271Y-110515448D01*
X182683814Y-110432186D01*
X182600552Y-110330729D01*
X182571222Y-110294991D01*
X182561652Y-110277087D01*
X182487557Y-110138467D01*
X182470384Y-110081853D01*
X182436037Y-109968627D01*
X182418641Y-109792000D01*
X182436037Y-109615373D01*
X182487557Y-109445534D01*
X182487557Y-109445533D01*
X182571221Y-109289011D01*
X182571222Y-109289009D01*
X182600552Y-109253271D01*
X182683814Y-109151814D01*
X182785271Y-109068552D01*
X182821009Y-109039222D01*
X182838913Y-109029652D01*
X182977533Y-108955557D01*
X183034147Y-108938384D01*
X183147373Y-108904037D01*
X183213558Y-108897518D01*
X183279740Y-108891000D01*
X183368260Y-108891000D01*
X183434442Y-108897518D01*
X183434442Y-108897518D01*
G37*
G36*
X180894442Y-108897518D02*
X180960627Y-108904037D01*
X181073853Y-108938384D01*
X181130467Y-108955557D01*
X181269087Y-109029652D01*
X181286991Y-109039222D01*
X181322729Y-109068552D01*
X181424186Y-109151814D01*
X181507448Y-109253271D01*
X181536778Y-109289009D01*
X181536779Y-109289011D01*
X181620443Y-109445533D01*
X181620443Y-109445534D01*
X181671963Y-109615373D01*
X181689359Y-109792000D01*
X181671963Y-109968627D01*
X181637616Y-110081853D01*
X181620443Y-110138467D01*
X181546348Y-110277087D01*
X181536778Y-110294991D01*
X181507448Y-110330729D01*
X181424186Y-110432186D01*
X181322729Y-110515448D01*
X181286991Y-110544778D01*
X181286989Y-110544779D01*
X181130467Y-110628443D01*
X181073853Y-110645616D01*
X180960627Y-110679963D01*
X180894443Y-110686481D01*
X180828260Y-110693000D01*
X180739740Y-110693000D01*
X180673557Y-110686481D01*
X180607373Y-110679963D01*
X180494147Y-110645616D01*
X180437533Y-110628443D01*
X180281011Y-110544779D01*
X180281009Y-110544778D01*
X180245271Y-110515448D01*
X180143814Y-110432186D01*
X180060552Y-110330729D01*
X180031222Y-110294991D01*
X180021652Y-110277087D01*
X179947557Y-110138467D01*
X179930384Y-110081853D01*
X179896037Y-109968627D01*
X179878641Y-109792000D01*
X179896037Y-109615373D01*
X179947557Y-109445534D01*
X179947557Y-109445533D01*
X180031221Y-109289011D01*
X180031222Y-109289009D01*
X180060552Y-109253271D01*
X180143814Y-109151814D01*
X180245271Y-109068552D01*
X180281009Y-109039222D01*
X180298913Y-109029652D01*
X180437533Y-108955557D01*
X180494147Y-108938384D01*
X180607373Y-108904037D01*
X180673558Y-108897518D01*
X180739740Y-108891000D01*
X180828260Y-108891000D01*
X180894442Y-108897518D01*
X180894442Y-108897518D01*
G37*
G36*
X178354442Y-108897518D02*
X178420627Y-108904037D01*
X178533853Y-108938384D01*
X178590467Y-108955557D01*
X178729087Y-109029652D01*
X178746991Y-109039222D01*
X178782729Y-109068552D01*
X178884186Y-109151814D01*
X178967448Y-109253271D01*
X178996778Y-109289009D01*
X178996779Y-109289011D01*
X179080443Y-109445533D01*
X179080443Y-109445534D01*
X179131963Y-109615373D01*
X179149359Y-109792000D01*
X179131963Y-109968627D01*
X179097616Y-110081853D01*
X179080443Y-110138467D01*
X179006348Y-110277087D01*
X178996778Y-110294991D01*
X178967448Y-110330729D01*
X178884186Y-110432186D01*
X178782729Y-110515448D01*
X178746991Y-110544778D01*
X178746989Y-110544779D01*
X178590467Y-110628443D01*
X178533853Y-110645616D01*
X178420627Y-110679963D01*
X178354443Y-110686481D01*
X178288260Y-110693000D01*
X178199740Y-110693000D01*
X178133557Y-110686481D01*
X178067373Y-110679963D01*
X177954147Y-110645616D01*
X177897533Y-110628443D01*
X177741011Y-110544779D01*
X177741009Y-110544778D01*
X177705271Y-110515448D01*
X177603814Y-110432186D01*
X177520552Y-110330729D01*
X177491222Y-110294991D01*
X177481652Y-110277087D01*
X177407557Y-110138467D01*
X177390384Y-110081853D01*
X177356037Y-109968627D01*
X177338641Y-109792000D01*
X177356037Y-109615373D01*
X177407557Y-109445534D01*
X177407557Y-109445533D01*
X177491221Y-109289011D01*
X177491222Y-109289009D01*
X177520552Y-109253271D01*
X177603814Y-109151814D01*
X177705271Y-109068552D01*
X177741009Y-109039222D01*
X177758913Y-109029652D01*
X177897533Y-108955557D01*
X177954147Y-108938384D01*
X178067373Y-108904037D01*
X178133558Y-108897518D01*
X178199740Y-108891000D01*
X178288260Y-108891000D01*
X178354442Y-108897518D01*
X178354442Y-108897518D01*
G37*
G36*
X176605000Y-110693000D02*
X174803000Y-110693000D01*
X174803000Y-108891000D01*
X176605000Y-108891000D01*
X176605000Y-110693000D01*
X176605000Y-110693000D01*
G37*
G36*
X185974442Y-108897518D02*
X186040627Y-108904037D01*
X186153853Y-108938384D01*
X186210467Y-108955557D01*
X186349087Y-109029652D01*
X186366991Y-109039222D01*
X186402729Y-109068552D01*
X186504186Y-109151814D01*
X186587448Y-109253271D01*
X186616778Y-109289009D01*
X186616779Y-109289011D01*
X186700443Y-109445533D01*
X186700443Y-109445534D01*
X186751963Y-109615373D01*
X186769359Y-109792000D01*
X186751963Y-109968627D01*
X186717616Y-110081853D01*
X186700443Y-110138467D01*
X186626348Y-110277087D01*
X186616778Y-110294991D01*
X186587448Y-110330729D01*
X186504186Y-110432186D01*
X186402729Y-110515448D01*
X186366991Y-110544778D01*
X186366989Y-110544779D01*
X186210467Y-110628443D01*
X186153853Y-110645616D01*
X186040627Y-110679963D01*
X185974443Y-110686481D01*
X185908260Y-110693000D01*
X185819740Y-110693000D01*
X185753557Y-110686481D01*
X185687373Y-110679963D01*
X185574147Y-110645616D01*
X185517533Y-110628443D01*
X185361011Y-110544779D01*
X185361009Y-110544778D01*
X185325271Y-110515448D01*
X185223814Y-110432186D01*
X185140552Y-110330729D01*
X185111222Y-110294991D01*
X185101652Y-110277087D01*
X185027557Y-110138467D01*
X185010384Y-110081853D01*
X184976037Y-109968627D01*
X184958641Y-109792000D01*
X184976037Y-109615373D01*
X185027557Y-109445534D01*
X185027557Y-109445533D01*
X185111221Y-109289011D01*
X185111222Y-109289009D01*
X185140552Y-109253271D01*
X185223814Y-109151814D01*
X185325271Y-109068552D01*
X185361009Y-109039222D01*
X185378913Y-109029652D01*
X185517533Y-108955557D01*
X185574147Y-108938384D01*
X185687373Y-108904037D01*
X185753558Y-108897518D01*
X185819740Y-108891000D01*
X185908260Y-108891000D01*
X185974442Y-108897518D01*
X185974442Y-108897518D01*
G37*
G36*
X183434443Y-106357519D02*
X183500627Y-106364037D01*
X183613853Y-106398384D01*
X183670467Y-106415557D01*
X183809087Y-106489652D01*
X183826991Y-106499222D01*
X183862729Y-106528552D01*
X183964186Y-106611814D01*
X184047448Y-106713271D01*
X184076778Y-106749009D01*
X184076779Y-106749011D01*
X184160443Y-106905533D01*
X184160443Y-106905534D01*
X184211963Y-107075373D01*
X184229359Y-107252000D01*
X184211963Y-107428627D01*
X184177616Y-107541853D01*
X184160443Y-107598467D01*
X184086348Y-107737087D01*
X184076778Y-107754991D01*
X184047448Y-107790729D01*
X183964186Y-107892186D01*
X183862729Y-107975448D01*
X183826991Y-108004778D01*
X183826989Y-108004779D01*
X183670467Y-108088443D01*
X183613853Y-108105616D01*
X183500627Y-108139963D01*
X183434443Y-108146481D01*
X183368260Y-108153000D01*
X183279740Y-108153000D01*
X183213557Y-108146481D01*
X183147373Y-108139963D01*
X183034147Y-108105616D01*
X182977533Y-108088443D01*
X182821011Y-108004779D01*
X182821009Y-108004778D01*
X182785271Y-107975448D01*
X182683814Y-107892186D01*
X182600552Y-107790729D01*
X182571222Y-107754991D01*
X182561652Y-107737087D01*
X182487557Y-107598467D01*
X182470384Y-107541853D01*
X182436037Y-107428627D01*
X182418641Y-107252000D01*
X182436037Y-107075373D01*
X182487557Y-106905534D01*
X182487557Y-106905533D01*
X182571221Y-106749011D01*
X182571222Y-106749009D01*
X182600552Y-106713271D01*
X182683814Y-106611814D01*
X182785271Y-106528552D01*
X182821009Y-106499222D01*
X182838913Y-106489652D01*
X182977533Y-106415557D01*
X183034147Y-106398384D01*
X183147373Y-106364037D01*
X183213557Y-106357519D01*
X183279740Y-106351000D01*
X183368260Y-106351000D01*
X183434443Y-106357519D01*
X183434443Y-106357519D01*
G37*
G36*
X188514443Y-106357519D02*
X188580627Y-106364037D01*
X188693853Y-106398384D01*
X188750467Y-106415557D01*
X188889087Y-106489652D01*
X188906991Y-106499222D01*
X188942729Y-106528552D01*
X189044186Y-106611814D01*
X189127448Y-106713271D01*
X189156778Y-106749009D01*
X189156779Y-106749011D01*
X189240443Y-106905533D01*
X189240443Y-106905534D01*
X189291963Y-107075373D01*
X189309359Y-107252000D01*
X189291963Y-107428627D01*
X189257616Y-107541853D01*
X189240443Y-107598467D01*
X189166348Y-107737087D01*
X189156778Y-107754991D01*
X189127448Y-107790729D01*
X189044186Y-107892186D01*
X188942729Y-107975448D01*
X188906991Y-108004778D01*
X188906989Y-108004779D01*
X188750467Y-108088443D01*
X188693853Y-108105616D01*
X188580627Y-108139963D01*
X188514443Y-108146481D01*
X188448260Y-108153000D01*
X188359740Y-108153000D01*
X188293557Y-108146481D01*
X188227373Y-108139963D01*
X188114147Y-108105616D01*
X188057533Y-108088443D01*
X187901011Y-108004779D01*
X187901009Y-108004778D01*
X187865271Y-107975448D01*
X187763814Y-107892186D01*
X187680552Y-107790729D01*
X187651222Y-107754991D01*
X187641652Y-107737087D01*
X187567557Y-107598467D01*
X187550384Y-107541853D01*
X187516037Y-107428627D01*
X187498641Y-107252000D01*
X187516037Y-107075373D01*
X187567557Y-106905534D01*
X187567557Y-106905533D01*
X187651221Y-106749011D01*
X187651222Y-106749009D01*
X187680552Y-106713271D01*
X187763814Y-106611814D01*
X187865271Y-106528552D01*
X187901009Y-106499222D01*
X187918913Y-106489652D01*
X188057533Y-106415557D01*
X188114147Y-106398384D01*
X188227373Y-106364037D01*
X188293557Y-106357519D01*
X188359740Y-106351000D01*
X188448260Y-106351000D01*
X188514443Y-106357519D01*
X188514443Y-106357519D01*
G37*
G36*
X185974443Y-106357519D02*
X186040627Y-106364037D01*
X186153853Y-106398384D01*
X186210467Y-106415557D01*
X186349087Y-106489652D01*
X186366991Y-106499222D01*
X186402729Y-106528552D01*
X186504186Y-106611814D01*
X186587448Y-106713271D01*
X186616778Y-106749009D01*
X186616779Y-106749011D01*
X186700443Y-106905533D01*
X186700443Y-106905534D01*
X186751963Y-107075373D01*
X186769359Y-107252000D01*
X186751963Y-107428627D01*
X186717616Y-107541853D01*
X186700443Y-107598467D01*
X186626348Y-107737087D01*
X186616778Y-107754991D01*
X186587448Y-107790729D01*
X186504186Y-107892186D01*
X186402729Y-107975448D01*
X186366991Y-108004778D01*
X186366989Y-108004779D01*
X186210467Y-108088443D01*
X186153853Y-108105616D01*
X186040627Y-108139963D01*
X185974443Y-108146481D01*
X185908260Y-108153000D01*
X185819740Y-108153000D01*
X185753557Y-108146481D01*
X185687373Y-108139963D01*
X185574147Y-108105616D01*
X185517533Y-108088443D01*
X185361011Y-108004779D01*
X185361009Y-108004778D01*
X185325271Y-107975448D01*
X185223814Y-107892186D01*
X185140552Y-107790729D01*
X185111222Y-107754991D01*
X185101652Y-107737087D01*
X185027557Y-107598467D01*
X185010384Y-107541853D01*
X184976037Y-107428627D01*
X184958641Y-107252000D01*
X184976037Y-107075373D01*
X185027557Y-106905534D01*
X185027557Y-106905533D01*
X185111221Y-106749011D01*
X185111222Y-106749009D01*
X185140552Y-106713271D01*
X185223814Y-106611814D01*
X185325271Y-106528552D01*
X185361009Y-106499222D01*
X185378913Y-106489652D01*
X185517533Y-106415557D01*
X185574147Y-106398384D01*
X185687373Y-106364037D01*
X185753557Y-106357519D01*
X185819740Y-106351000D01*
X185908260Y-106351000D01*
X185974443Y-106357519D01*
X185974443Y-106357519D01*
G37*
G36*
X180894443Y-106357519D02*
X180960627Y-106364037D01*
X181073853Y-106398384D01*
X181130467Y-106415557D01*
X181269087Y-106489652D01*
X181286991Y-106499222D01*
X181322729Y-106528552D01*
X181424186Y-106611814D01*
X181507448Y-106713271D01*
X181536778Y-106749009D01*
X181536779Y-106749011D01*
X181620443Y-106905533D01*
X181620443Y-106905534D01*
X181671963Y-107075373D01*
X181689359Y-107252000D01*
X181671963Y-107428627D01*
X181637616Y-107541853D01*
X181620443Y-107598467D01*
X181546348Y-107737087D01*
X181536778Y-107754991D01*
X181507448Y-107790729D01*
X181424186Y-107892186D01*
X181322729Y-107975448D01*
X181286991Y-108004778D01*
X181286989Y-108004779D01*
X181130467Y-108088443D01*
X181073853Y-108105616D01*
X180960627Y-108139963D01*
X180894443Y-108146481D01*
X180828260Y-108153000D01*
X180739740Y-108153000D01*
X180673557Y-108146481D01*
X180607373Y-108139963D01*
X180494147Y-108105616D01*
X180437533Y-108088443D01*
X180281011Y-108004779D01*
X180281009Y-108004778D01*
X180245271Y-107975448D01*
X180143814Y-107892186D01*
X180060552Y-107790729D01*
X180031222Y-107754991D01*
X180021652Y-107737087D01*
X179947557Y-107598467D01*
X179930384Y-107541853D01*
X179896037Y-107428627D01*
X179878641Y-107252000D01*
X179896037Y-107075373D01*
X179947557Y-106905534D01*
X179947557Y-106905533D01*
X180031221Y-106749011D01*
X180031222Y-106749009D01*
X180060552Y-106713271D01*
X180143814Y-106611814D01*
X180245271Y-106528552D01*
X180281009Y-106499222D01*
X180298913Y-106489652D01*
X180437533Y-106415557D01*
X180494147Y-106398384D01*
X180607373Y-106364037D01*
X180673557Y-106357519D01*
X180739740Y-106351000D01*
X180828260Y-106351000D01*
X180894443Y-106357519D01*
X180894443Y-106357519D01*
G37*
G36*
X178354443Y-106357519D02*
X178420627Y-106364037D01*
X178533853Y-106398384D01*
X178590467Y-106415557D01*
X178729087Y-106489652D01*
X178746991Y-106499222D01*
X178782729Y-106528552D01*
X178884186Y-106611814D01*
X178967448Y-106713271D01*
X178996778Y-106749009D01*
X178996779Y-106749011D01*
X179080443Y-106905533D01*
X179080443Y-106905534D01*
X179131963Y-107075373D01*
X179149359Y-107252000D01*
X179131963Y-107428627D01*
X179097616Y-107541853D01*
X179080443Y-107598467D01*
X179006348Y-107737087D01*
X178996778Y-107754991D01*
X178967448Y-107790729D01*
X178884186Y-107892186D01*
X178782729Y-107975448D01*
X178746991Y-108004778D01*
X178746989Y-108004779D01*
X178590467Y-108088443D01*
X178533853Y-108105616D01*
X178420627Y-108139963D01*
X178354443Y-108146481D01*
X178288260Y-108153000D01*
X178199740Y-108153000D01*
X178133557Y-108146481D01*
X178067373Y-108139963D01*
X177954147Y-108105616D01*
X177897533Y-108088443D01*
X177741011Y-108004779D01*
X177741009Y-108004778D01*
X177705271Y-107975448D01*
X177603814Y-107892186D01*
X177520552Y-107790729D01*
X177491222Y-107754991D01*
X177481652Y-107737087D01*
X177407557Y-107598467D01*
X177390384Y-107541853D01*
X177356037Y-107428627D01*
X177338641Y-107252000D01*
X177356037Y-107075373D01*
X177407557Y-106905534D01*
X177407557Y-106905533D01*
X177491221Y-106749011D01*
X177491222Y-106749009D01*
X177520552Y-106713271D01*
X177603814Y-106611814D01*
X177705271Y-106528552D01*
X177741009Y-106499222D01*
X177758913Y-106489652D01*
X177897533Y-106415557D01*
X177954147Y-106398384D01*
X178067373Y-106364037D01*
X178133557Y-106357519D01*
X178199740Y-106351000D01*
X178288260Y-106351000D01*
X178354443Y-106357519D01*
X178354443Y-106357519D01*
G37*
G36*
X175814443Y-106357519D02*
X175880627Y-106364037D01*
X175993853Y-106398384D01*
X176050467Y-106415557D01*
X176189087Y-106489652D01*
X176206991Y-106499222D01*
X176242729Y-106528552D01*
X176344186Y-106611814D01*
X176427448Y-106713271D01*
X176456778Y-106749009D01*
X176456779Y-106749011D01*
X176540443Y-106905533D01*
X176540443Y-106905534D01*
X176591963Y-107075373D01*
X176609359Y-107252000D01*
X176591963Y-107428627D01*
X176557616Y-107541853D01*
X176540443Y-107598467D01*
X176466348Y-107737087D01*
X176456778Y-107754991D01*
X176427448Y-107790729D01*
X176344186Y-107892186D01*
X176242729Y-107975448D01*
X176206991Y-108004778D01*
X176206989Y-108004779D01*
X176050467Y-108088443D01*
X175993853Y-108105616D01*
X175880627Y-108139963D01*
X175814443Y-108146481D01*
X175748260Y-108153000D01*
X175659740Y-108153000D01*
X175593557Y-108146481D01*
X175527373Y-108139963D01*
X175414147Y-108105616D01*
X175357533Y-108088443D01*
X175201011Y-108004779D01*
X175201009Y-108004778D01*
X175165271Y-107975448D01*
X175063814Y-107892186D01*
X174980552Y-107790729D01*
X174951222Y-107754991D01*
X174941652Y-107737087D01*
X174867557Y-107598467D01*
X174850384Y-107541853D01*
X174816037Y-107428627D01*
X174798641Y-107252000D01*
X174816037Y-107075373D01*
X174867557Y-106905534D01*
X174867557Y-106905533D01*
X174951221Y-106749011D01*
X174951222Y-106749009D01*
X174980552Y-106713271D01*
X175063814Y-106611814D01*
X175165271Y-106528552D01*
X175201009Y-106499222D01*
X175218913Y-106489652D01*
X175357533Y-106415557D01*
X175414147Y-106398384D01*
X175527373Y-106364037D01*
X175593557Y-106357519D01*
X175659740Y-106351000D01*
X175748260Y-106351000D01*
X175814443Y-106357519D01*
X175814443Y-106357519D01*
G37*
G36*
X180887820Y-97376813D02*
X180887823Y-97376814D01*
X180887824Y-97376814D01*
X181048238Y-97425475D01*
X181048240Y-97425476D01*
X181048243Y-97425477D01*
X181196078Y-97504495D01*
X181325659Y-97610841D01*
X181432005Y-97740422D01*
X181511023Y-97888256D01*
X181559687Y-98048679D01*
X181572000Y-98173696D01*
X181572000Y-99057303D01*
X181559687Y-99182320D01*
X181559686Y-99182322D01*
X181559686Y-99182325D01*
X181511025Y-99342739D01*
X181511023Y-99342744D01*
X181432005Y-99490578D01*
X181325659Y-99620159D01*
X181196078Y-99726505D01*
X181048244Y-99805523D01*
X181048241Y-99805524D01*
X181048239Y-99805525D01*
X180887825Y-99854186D01*
X180887824Y-99854186D01*
X180887821Y-99854187D01*
X180721000Y-99870617D01*
X180554180Y-99854187D01*
X180554177Y-99854186D01*
X180554176Y-99854186D01*
X180393762Y-99805525D01*
X180393760Y-99805524D01*
X180393757Y-99805523D01*
X180245923Y-99726505D01*
X180116342Y-99620159D01*
X180009996Y-99490578D01*
X179930978Y-99342744D01*
X179882314Y-99182321D01*
X179870000Y-99057303D01*
X179870000Y-98173697D01*
X179882313Y-98048680D01*
X179882314Y-98048676D01*
X179930975Y-97888262D01*
X179930976Y-97888260D01*
X179930977Y-97888257D01*
X180009995Y-97740422D01*
X180116341Y-97610841D01*
X180245922Y-97504495D01*
X180393756Y-97425477D01*
X180393759Y-97425476D01*
X180393761Y-97425475D01*
X180554175Y-97376814D01*
X180554176Y-97376814D01*
X180554179Y-97376813D01*
X180721000Y-97360383D01*
X180887820Y-97376813D01*
X180887820Y-97376813D01*
G37*
G36*
X188507820Y-97376813D02*
X188507823Y-97376814D01*
X188507824Y-97376814D01*
X188668238Y-97425475D01*
X188668240Y-97425476D01*
X188668243Y-97425477D01*
X188816078Y-97504495D01*
X188945659Y-97610841D01*
X189052005Y-97740422D01*
X189131023Y-97888256D01*
X189179687Y-98048679D01*
X189192000Y-98173696D01*
X189192000Y-99057303D01*
X189179687Y-99182320D01*
X189179686Y-99182322D01*
X189179686Y-99182325D01*
X189131025Y-99342739D01*
X189131023Y-99342744D01*
X189052005Y-99490578D01*
X188945659Y-99620159D01*
X188816078Y-99726505D01*
X188668244Y-99805523D01*
X188668241Y-99805524D01*
X188668239Y-99805525D01*
X188507825Y-99854186D01*
X188507824Y-99854186D01*
X188507821Y-99854187D01*
X188341000Y-99870617D01*
X188174180Y-99854187D01*
X188174177Y-99854186D01*
X188174176Y-99854186D01*
X188013762Y-99805525D01*
X188013760Y-99805524D01*
X188013757Y-99805523D01*
X187865923Y-99726505D01*
X187736342Y-99620159D01*
X187629996Y-99490578D01*
X187550978Y-99342744D01*
X187502314Y-99182321D01*
X187490000Y-99057303D01*
X187490000Y-98173697D01*
X187502313Y-98048680D01*
X187502314Y-98048676D01*
X187550975Y-97888262D01*
X187550976Y-97888260D01*
X187550977Y-97888257D01*
X187629995Y-97740422D01*
X187736341Y-97610841D01*
X187865922Y-97504495D01*
X188013756Y-97425477D01*
X188013759Y-97425476D01*
X188013761Y-97425475D01*
X188174175Y-97376814D01*
X188174176Y-97376814D01*
X188174179Y-97376813D01*
X188341000Y-97360383D01*
X188507820Y-97376813D01*
X188507820Y-97376813D01*
G37*
G36*
X185967820Y-97376813D02*
X185967823Y-97376814D01*
X185967824Y-97376814D01*
X186128238Y-97425475D01*
X186128240Y-97425476D01*
X186128243Y-97425477D01*
X186276078Y-97504495D01*
X186405659Y-97610841D01*
X186512005Y-97740422D01*
X186591023Y-97888256D01*
X186639687Y-98048679D01*
X186652000Y-98173696D01*
X186652000Y-99057303D01*
X186639687Y-99182320D01*
X186639686Y-99182322D01*
X186639686Y-99182325D01*
X186591025Y-99342739D01*
X186591023Y-99342744D01*
X186512005Y-99490578D01*
X186405659Y-99620159D01*
X186276078Y-99726505D01*
X186128244Y-99805523D01*
X186128241Y-99805524D01*
X186128239Y-99805525D01*
X185967825Y-99854186D01*
X185967824Y-99854186D01*
X185967821Y-99854187D01*
X185801000Y-99870617D01*
X185634180Y-99854187D01*
X185634177Y-99854186D01*
X185634176Y-99854186D01*
X185473762Y-99805525D01*
X185473760Y-99805524D01*
X185473757Y-99805523D01*
X185325923Y-99726505D01*
X185196342Y-99620159D01*
X185089996Y-99490578D01*
X185010978Y-99342744D01*
X184962314Y-99182321D01*
X184950000Y-99057303D01*
X184950000Y-98173697D01*
X184962313Y-98048680D01*
X184962314Y-98048676D01*
X185010975Y-97888262D01*
X185010976Y-97888260D01*
X185010977Y-97888257D01*
X185089995Y-97740422D01*
X185196341Y-97610841D01*
X185325922Y-97504495D01*
X185473756Y-97425477D01*
X185473759Y-97425476D01*
X185473761Y-97425475D01*
X185634175Y-97376814D01*
X185634176Y-97376814D01*
X185634179Y-97376813D01*
X185801000Y-97360383D01*
X185967820Y-97376813D01*
X185967820Y-97376813D01*
G37*
G36*
X183427820Y-97376813D02*
X183427823Y-97376814D01*
X183427824Y-97376814D01*
X183588238Y-97425475D01*
X183588240Y-97425476D01*
X183588243Y-97425477D01*
X183736078Y-97504495D01*
X183865659Y-97610841D01*
X183972005Y-97740422D01*
X184051023Y-97888256D01*
X184099687Y-98048679D01*
X184112000Y-98173696D01*
X184112000Y-99057303D01*
X184099687Y-99182320D01*
X184099686Y-99182322D01*
X184099686Y-99182325D01*
X184051025Y-99342739D01*
X184051023Y-99342744D01*
X183972005Y-99490578D01*
X183865659Y-99620159D01*
X183736078Y-99726505D01*
X183588244Y-99805523D01*
X183588241Y-99805524D01*
X183588239Y-99805525D01*
X183427825Y-99854186D01*
X183427824Y-99854186D01*
X183427821Y-99854187D01*
X183261000Y-99870617D01*
X183094180Y-99854187D01*
X183094177Y-99854186D01*
X183094176Y-99854186D01*
X182933762Y-99805525D01*
X182933760Y-99805524D01*
X182933757Y-99805523D01*
X182785923Y-99726505D01*
X182656342Y-99620159D01*
X182549996Y-99490578D01*
X182470978Y-99342744D01*
X182422314Y-99182321D01*
X182410000Y-99057303D01*
X182410000Y-98173697D01*
X182422313Y-98048680D01*
X182422314Y-98048676D01*
X182470975Y-97888262D01*
X182470976Y-97888260D01*
X182470977Y-97888257D01*
X182549995Y-97740422D01*
X182656341Y-97610841D01*
X182785922Y-97504495D01*
X182933756Y-97425477D01*
X182933759Y-97425476D01*
X182933761Y-97425475D01*
X183094175Y-97376814D01*
X183094176Y-97376814D01*
X183094179Y-97376813D01*
X183261000Y-97360383D01*
X183427820Y-97376813D01*
X183427820Y-97376813D01*
G37*
G36*
X178347820Y-97376813D02*
X178347823Y-97376814D01*
X178347824Y-97376814D01*
X178508238Y-97425475D01*
X178508240Y-97425476D01*
X178508243Y-97425477D01*
X178656078Y-97504495D01*
X178785659Y-97610841D01*
X178892005Y-97740422D01*
X178971023Y-97888256D01*
X179019687Y-98048679D01*
X179032000Y-98173696D01*
X179032000Y-99057303D01*
X179019687Y-99182320D01*
X179019686Y-99182322D01*
X179019686Y-99182325D01*
X178971025Y-99342739D01*
X178971023Y-99342744D01*
X178892005Y-99490578D01*
X178785659Y-99620159D01*
X178656078Y-99726505D01*
X178508244Y-99805523D01*
X178508241Y-99805524D01*
X178508239Y-99805525D01*
X178347825Y-99854186D01*
X178347824Y-99854186D01*
X178347821Y-99854187D01*
X178181000Y-99870617D01*
X178014180Y-99854187D01*
X178014177Y-99854186D01*
X178014176Y-99854186D01*
X177853762Y-99805525D01*
X177853760Y-99805524D01*
X177853757Y-99805523D01*
X177705923Y-99726505D01*
X177576342Y-99620159D01*
X177469996Y-99490578D01*
X177390978Y-99342744D01*
X177342314Y-99182321D01*
X177330000Y-99057303D01*
X177330000Y-98173697D01*
X177342313Y-98048680D01*
X177342314Y-98048676D01*
X177390975Y-97888262D01*
X177390976Y-97888260D01*
X177390977Y-97888257D01*
X177469995Y-97740422D01*
X177576341Y-97610841D01*
X177705922Y-97504495D01*
X177853756Y-97425477D01*
X177853759Y-97425476D01*
X177853761Y-97425475D01*
X178014175Y-97376814D01*
X178014176Y-97376814D01*
X178014179Y-97376813D01*
X178181000Y-97360383D01*
X178347820Y-97376813D01*
X178347820Y-97376813D01*
G37*
G36*
X176492000Y-99866500D02*
X174790000Y-99866500D01*
X174790000Y-97364500D01*
X176492000Y-97364500D01*
X176492000Y-99866500D01*
X176492000Y-99866500D01*
G37*
G36*
X175807820Y-89756813D02*
X175807823Y-89756814D01*
X175807824Y-89756814D01*
X175968238Y-89805475D01*
X175968240Y-89805476D01*
X175968243Y-89805477D01*
X176116078Y-89884495D01*
X176245659Y-89990841D01*
X176352005Y-90120422D01*
X176431023Y-90268256D01*
X176479687Y-90428679D01*
X176492000Y-90553696D01*
X176492000Y-91437303D01*
X176479687Y-91562320D01*
X176479686Y-91562322D01*
X176479686Y-91562325D01*
X176431025Y-91722739D01*
X176431023Y-91722744D01*
X176352005Y-91870578D01*
X176245659Y-92000159D01*
X176116078Y-92106505D01*
X175968244Y-92185523D01*
X175968241Y-92185524D01*
X175968239Y-92185525D01*
X175807825Y-92234186D01*
X175807824Y-92234186D01*
X175807821Y-92234187D01*
X175641000Y-92250617D01*
X175474180Y-92234187D01*
X175474177Y-92234186D01*
X175474176Y-92234186D01*
X175313762Y-92185525D01*
X175313760Y-92185524D01*
X175313757Y-92185523D01*
X175165923Y-92106505D01*
X175036342Y-92000159D01*
X174929996Y-91870578D01*
X174850978Y-91722744D01*
X174802314Y-91562321D01*
X174790000Y-91437303D01*
X174790000Y-90553697D01*
X174802313Y-90428680D01*
X174802314Y-90428676D01*
X174850975Y-90268262D01*
X174850976Y-90268260D01*
X174850977Y-90268257D01*
X174929995Y-90120422D01*
X175036341Y-89990841D01*
X175165922Y-89884495D01*
X175313756Y-89805477D01*
X175313759Y-89805476D01*
X175313761Y-89805475D01*
X175474175Y-89756814D01*
X175474176Y-89756814D01*
X175474179Y-89756813D01*
X175641000Y-89740383D01*
X175807820Y-89756813D01*
X175807820Y-89756813D01*
G37*
G36*
X180887820Y-89756813D02*
X180887823Y-89756814D01*
X180887824Y-89756814D01*
X181048238Y-89805475D01*
X181048240Y-89805476D01*
X181048243Y-89805477D01*
X181196078Y-89884495D01*
X181325659Y-89990841D01*
X181432005Y-90120422D01*
X181511023Y-90268256D01*
X181559687Y-90428679D01*
X181572000Y-90553696D01*
X181572000Y-91437303D01*
X181559687Y-91562320D01*
X181559686Y-91562322D01*
X181559686Y-91562325D01*
X181511025Y-91722739D01*
X181511023Y-91722744D01*
X181432005Y-91870578D01*
X181325659Y-92000159D01*
X181196078Y-92106505D01*
X181048244Y-92185523D01*
X181048241Y-92185524D01*
X181048239Y-92185525D01*
X180887825Y-92234186D01*
X180887824Y-92234186D01*
X180887821Y-92234187D01*
X180721000Y-92250617D01*
X180554180Y-92234187D01*
X180554177Y-92234186D01*
X180554176Y-92234186D01*
X180393762Y-92185525D01*
X180393760Y-92185524D01*
X180393757Y-92185523D01*
X180245923Y-92106505D01*
X180116342Y-92000159D01*
X180009996Y-91870578D01*
X179930978Y-91722744D01*
X179882314Y-91562321D01*
X179870000Y-91437303D01*
X179870000Y-90553697D01*
X179882313Y-90428680D01*
X179882314Y-90428676D01*
X179930975Y-90268262D01*
X179930976Y-90268260D01*
X179930977Y-90268257D01*
X180009995Y-90120422D01*
X180116341Y-89990841D01*
X180245922Y-89884495D01*
X180393756Y-89805477D01*
X180393759Y-89805476D01*
X180393761Y-89805475D01*
X180554175Y-89756814D01*
X180554176Y-89756814D01*
X180554179Y-89756813D01*
X180721000Y-89740383D01*
X180887820Y-89756813D01*
X180887820Y-89756813D01*
G37*
G36*
X178347820Y-89756813D02*
X178347823Y-89756814D01*
X178347824Y-89756814D01*
X178508238Y-89805475D01*
X178508240Y-89805476D01*
X178508243Y-89805477D01*
X178656078Y-89884495D01*
X178785659Y-89990841D01*
X178892005Y-90120422D01*
X178971023Y-90268256D01*
X179019687Y-90428679D01*
X179032000Y-90553696D01*
X179032000Y-91437303D01*
X179019687Y-91562320D01*
X179019686Y-91562322D01*
X179019686Y-91562325D01*
X178971025Y-91722739D01*
X178971023Y-91722744D01*
X178892005Y-91870578D01*
X178785659Y-92000159D01*
X178656078Y-92106505D01*
X178508244Y-92185523D01*
X178508241Y-92185524D01*
X178508239Y-92185525D01*
X178347825Y-92234186D01*
X178347824Y-92234186D01*
X178347821Y-92234187D01*
X178181000Y-92250617D01*
X178014180Y-92234187D01*
X178014177Y-92234186D01*
X178014176Y-92234186D01*
X177853762Y-92185525D01*
X177853760Y-92185524D01*
X177853757Y-92185523D01*
X177705923Y-92106505D01*
X177576342Y-92000159D01*
X177469996Y-91870578D01*
X177390978Y-91722744D01*
X177342314Y-91562321D01*
X177330000Y-91437303D01*
X177330000Y-90553697D01*
X177342313Y-90428680D01*
X177342314Y-90428676D01*
X177390975Y-90268262D01*
X177390976Y-90268260D01*
X177390977Y-90268257D01*
X177469995Y-90120422D01*
X177576341Y-89990841D01*
X177705922Y-89884495D01*
X177853756Y-89805477D01*
X177853759Y-89805476D01*
X177853761Y-89805475D01*
X178014175Y-89756814D01*
X178014176Y-89756814D01*
X178014179Y-89756813D01*
X178181000Y-89740383D01*
X178347820Y-89756813D01*
X178347820Y-89756813D01*
G37*
G36*
X183427820Y-89756813D02*
X183427823Y-89756814D01*
X183427824Y-89756814D01*
X183588238Y-89805475D01*
X183588240Y-89805476D01*
X183588243Y-89805477D01*
X183736078Y-89884495D01*
X183865659Y-89990841D01*
X183972005Y-90120422D01*
X184051023Y-90268256D01*
X184099687Y-90428679D01*
X184112000Y-90553696D01*
X184112000Y-91437303D01*
X184099687Y-91562320D01*
X184099686Y-91562322D01*
X184099686Y-91562325D01*
X184051025Y-91722739D01*
X184051023Y-91722744D01*
X183972005Y-91870578D01*
X183865659Y-92000159D01*
X183736078Y-92106505D01*
X183588244Y-92185523D01*
X183588241Y-92185524D01*
X183588239Y-92185525D01*
X183427825Y-92234186D01*
X183427824Y-92234186D01*
X183427821Y-92234187D01*
X183261000Y-92250617D01*
X183094180Y-92234187D01*
X183094177Y-92234186D01*
X183094176Y-92234186D01*
X182933762Y-92185525D01*
X182933760Y-92185524D01*
X182933757Y-92185523D01*
X182785923Y-92106505D01*
X182656342Y-92000159D01*
X182549996Y-91870578D01*
X182470978Y-91722744D01*
X182422314Y-91562321D01*
X182410000Y-91437303D01*
X182410000Y-90553697D01*
X182422313Y-90428680D01*
X182422314Y-90428676D01*
X182470975Y-90268262D01*
X182470976Y-90268260D01*
X182470977Y-90268257D01*
X182549995Y-90120422D01*
X182656341Y-89990841D01*
X182785922Y-89884495D01*
X182933756Y-89805477D01*
X182933759Y-89805476D01*
X182933761Y-89805475D01*
X183094175Y-89756814D01*
X183094176Y-89756814D01*
X183094179Y-89756813D01*
X183261000Y-89740383D01*
X183427820Y-89756813D01*
X183427820Y-89756813D01*
G37*
G36*
X185967820Y-89756813D02*
X185967823Y-89756814D01*
X185967824Y-89756814D01*
X186128238Y-89805475D01*
X186128240Y-89805476D01*
X186128243Y-89805477D01*
X186276078Y-89884495D01*
X186405659Y-89990841D01*
X186512005Y-90120422D01*
X186591023Y-90268256D01*
X186639687Y-90428679D01*
X186652000Y-90553696D01*
X186652000Y-91437303D01*
X186639687Y-91562320D01*
X186639686Y-91562322D01*
X186639686Y-91562325D01*
X186591025Y-91722739D01*
X186591023Y-91722744D01*
X186512005Y-91870578D01*
X186405659Y-92000159D01*
X186276078Y-92106505D01*
X186128244Y-92185523D01*
X186128241Y-92185524D01*
X186128239Y-92185525D01*
X185967825Y-92234186D01*
X185967824Y-92234186D01*
X185967821Y-92234187D01*
X185801000Y-92250617D01*
X185634180Y-92234187D01*
X185634177Y-92234186D01*
X185634176Y-92234186D01*
X185473762Y-92185525D01*
X185473760Y-92185524D01*
X185473757Y-92185523D01*
X185325923Y-92106505D01*
X185196342Y-92000159D01*
X185089996Y-91870578D01*
X185010978Y-91722744D01*
X184962314Y-91562321D01*
X184950000Y-91437303D01*
X184950000Y-90553697D01*
X184962313Y-90428680D01*
X184962314Y-90428676D01*
X185010975Y-90268262D01*
X185010976Y-90268260D01*
X185010977Y-90268257D01*
X185089995Y-90120422D01*
X185196341Y-89990841D01*
X185325922Y-89884495D01*
X185473756Y-89805477D01*
X185473759Y-89805476D01*
X185473761Y-89805475D01*
X185634175Y-89756814D01*
X185634176Y-89756814D01*
X185634179Y-89756813D01*
X185801000Y-89740383D01*
X185967820Y-89756813D01*
X185967820Y-89756813D01*
G37*
G36*
X188507820Y-89756813D02*
X188507823Y-89756814D01*
X188507824Y-89756814D01*
X188668238Y-89805475D01*
X188668240Y-89805476D01*
X188668243Y-89805477D01*
X188816078Y-89884495D01*
X188945659Y-89990841D01*
X189052005Y-90120422D01*
X189131023Y-90268256D01*
X189179687Y-90428679D01*
X189192000Y-90553696D01*
X189192000Y-91437303D01*
X189179687Y-91562320D01*
X189179686Y-91562322D01*
X189179686Y-91562325D01*
X189131025Y-91722739D01*
X189131023Y-91722744D01*
X189052005Y-91870578D01*
X188945659Y-92000159D01*
X188816078Y-92106505D01*
X188668244Y-92185523D01*
X188668241Y-92185524D01*
X188668239Y-92185525D01*
X188507825Y-92234186D01*
X188507824Y-92234186D01*
X188507821Y-92234187D01*
X188341000Y-92250617D01*
X188174180Y-92234187D01*
X188174177Y-92234186D01*
X188174176Y-92234186D01*
X188013762Y-92185525D01*
X188013760Y-92185524D01*
X188013757Y-92185523D01*
X187865923Y-92106505D01*
X187736342Y-92000159D01*
X187629996Y-91870578D01*
X187550978Y-91722744D01*
X187502314Y-91562321D01*
X187490000Y-91437303D01*
X187490000Y-90553697D01*
X187502313Y-90428680D01*
X187502314Y-90428676D01*
X187550975Y-90268262D01*
X187550976Y-90268260D01*
X187550977Y-90268257D01*
X187629995Y-90120422D01*
X187736341Y-89990841D01*
X187865922Y-89884495D01*
X188013756Y-89805477D01*
X188013759Y-89805476D01*
X188013761Y-89805475D01*
X188174175Y-89756814D01*
X188174176Y-89756814D01*
X188174179Y-89756813D01*
X188341000Y-89740383D01*
X188507820Y-89756813D01*
X188507820Y-89756813D01*
G37*
M02*
