M48
INCH,TZ
T1C0.0315
T2C0.0394
%
G90
G05
T1
X6.915Y-3.5825
X6.915Y-3.8825
X7.015Y-3.5825
X7.015Y-3.8825
X7.115Y-3.5825
X7.115Y-3.8825
X7.215Y-3.5825
X7.215Y-3.8825
X7.315Y-3.5825
X7.315Y-3.8825
X7.415Y-3.5825
X7.415Y-3.8825
T2
X6.9175Y-4.2225
X6.9175Y-4.3225
X7.0175Y-4.2225
X7.0175Y-4.3225
X7.1175Y-4.2225
X7.1175Y-4.3225
X7.2175Y-4.2225
X7.2175Y-4.3225
X7.3175Y-4.2225
X7.3175Y-4.3225
X7.4175Y-4.2225
X7.4175Y-4.3225
T0
M30
